<svg width="24" height="25" viewBox="0 0 24 25" fill="none" xmlns="http://www.w3.org/2000/svg">
<path fill-rule="evenodd" clip-rule="evenodd" d="M9.03696 9.35226C9.43981 6.8899 10.1607 4.39049 10.5117 3.2479C10.9958 3.16964 11.4929 3.12891 12 3.12891C12.5071 3.12891 13.0042 3.16964 13.4883 3.2479C13.8393 4.39049 14.5602 6.88991 14.963 9.35226C13.9175 9.52105 12.8962 9.62891 12 9.62891C11.1038 9.62891 10.0825 9.52105 9.03696 9.35226ZM16.4383 9.07973C16.1049 7.05482 15.5709 5.02591 15.1856 3.69189C17.3675 4.49235 19.1653 6.09233 20.2225 8.13728C19.2361 8.42123 17.878 8.78318 16.4383 9.07973ZM16.6435 10.5688C18.2515 10.2416 19.7612 9.8341 20.8034 9.53071C21.0932 10.4272 21.25 11.3841 21.25 12.3789C21.25 12.886 21.2093 13.3831 21.131 13.8672C20.2243 14.1457 18.4586 14.6587 16.5337 15.06C16.6657 14.1382 16.75 13.2213 16.75 12.3789C16.75 11.8015 16.7104 11.1906 16.6435 10.5688ZM16.265 16.6439C17.9522 16.3176 19.5648 15.8886 20.687 15.5644C19.7532 18.1102 17.7313 20.1321 15.1856 21.0659C15.5097 19.9437 15.9387 18.3311 16.265 16.6439ZM14.6811 16.9126C14.2798 18.8375 13.7668 20.6032 13.4883 21.5099C13.0042 21.5882 12.5071 21.6289 12 21.6289C11.4929 21.6289 10.9958 21.5882 10.5117 21.5099C10.2332 20.6032 9.72025 18.8375 9.31893 16.9126C10.2407 17.0446 11.1576 17.1289 12 17.1289C12.8424 17.1289 13.7593 17.0446 14.6811 16.9126ZM7.73495 16.6439C8.0613 18.3311 8.49031 19.9437 8.81445 21.0659C6.26873 20.1321 4.24683 18.1102 3.31296 15.5644C4.4352 15.8886 6.04784 16.3176 7.73495 16.6439ZM7.46634 15.06C5.54141 14.6587 3.77568 14.1457 2.86899 13.8672C2.79073 13.3831 2.75 12.886 2.75 12.3789C2.75 11.3841 2.90677 10.4272 3.19658 9.53071C4.23878 9.83411 5.74846 10.2416 7.35654 10.5688C7.28957 11.1906 7.25 11.8015 7.25 12.3789C7.25 13.2213 7.33431 14.1382 7.46634 15.06ZM7.56166 9.07973C6.12204 8.78318 4.76388 8.42123 3.77748 8.13728C4.83467 6.09233 6.63247 4.49234 8.81443 3.69189C8.42911 5.02591 7.89509 7.05482 7.56166 9.07973ZM8.75 12.3789C8.75 11.8981 8.78109 11.3798 8.83638 10.8393C9.91915 11.0127 11.0112 11.1289 12 11.1289C12.9888 11.1289 14.0809 11.0127 15.1636 10.8393C15.2189 11.3798 15.25 11.8981 15.25 12.3789C15.25 13.277 15.1416 14.3015 14.9719 15.3508C13.9226 15.5205 12.8981 15.6289 12 15.6289C11.1019 15.6289 10.0774 15.5205 9.02808 15.3508C8.85836 14.3015 8.75 13.277 8.75 12.3789ZM12 1.62891C11.2383 1.62891 10.4943 1.70825 9.77616 1.85936C6.25736 2.59979 3.37486 5.05881 2.04429 8.31652C1.53198 9.57084 1.25 10.9429 1.25 12.3789C1.25 13.1406 1.32934 13.8846 1.48045 14.6027C2.35435 18.7559 5.62304 22.0245 9.77616 22.8984C10.4943 23.0496 11.2383 23.1289 12 23.1289C12.7617 23.1289 13.5057 23.0496 14.2238 22.8984C18.377 22.0245 21.6456 18.7559 22.5195 14.6027C22.6707 13.8846 22.75 13.1406 22.75 12.3789C22.75 10.944 22.4685 9.57298 21.9569 8.31946C20.6269 5.06029 17.7437 2.60002 14.2238 1.85937C13.5057 1.70825 12.7617 1.62891 12 1.62891Z" fill="black"/>
</svg>
