<svg width="20" height="20" viewBox="0 0 20 20" fill="none" xmlns="http://www.w3.org/2000/svg">
<path d="M8.42917 18.1745C8.93417 18.5912 9.46083 18.972 10 19.3437C10.5403 18.977 11.0644 18.5869 11.5708 18.1745C12.415 17.4814 13.2095 16.7298 13.9483 15.9254C15.6517 14.0629 17.5 11.3629 17.5 8.33203C17.5 7.34712 17.306 6.37185 16.9291 5.46191C16.5522 4.55196 15.9997 3.72517 15.3033 3.02873C14.6069 2.33229 13.7801 1.77985 12.8701 1.40293C11.9602 1.02602 10.9849 0.832031 10 0.832031C9.01509 0.832031 8.03982 1.02602 7.12987 1.40293C6.21993 1.77985 5.39314 2.33229 4.6967 3.02873C4.00026 3.72517 3.44781 4.55196 3.0709 5.46191C2.69399 6.37185 2.5 7.34712 2.5 8.33203C2.5 11.3629 4.34833 14.062 6.05167 15.9254C6.79052 16.7301 7.58497 17.4811 8.42917 18.1745ZM10 11.0404C9.28171 11.0404 8.59283 10.755 8.08492 10.2471C7.57701 9.7392 7.29167 9.05033 7.29167 8.33203C7.29167 7.61374 7.57701 6.92486 8.08492 6.41695C8.59283 5.90904 9.28171 5.6237 10 5.6237C10.7183 5.6237 11.4072 5.90904 11.9151 6.41695C12.423 6.92486 12.7083 7.61374 12.7083 8.33203C12.7083 9.05033 12.423 9.7392 11.9151 10.2471C11.4072 10.755 10.7183 11.0404 10 11.0404Z" fill="#EC2635"/>
</svg>
