<svg width="24" height="25" viewBox="0 0 24 25" fill="none" xmlns="http://www.w3.org/2000/svg">
<g clip-path="url(#clip0_22060_3275)">
<path fill-rule="evenodd" clip-rule="evenodd" d="M4.04786 5.58968C4.22632 3.26357 6.18439 1.50391 8.49757 1.50391H15.4905C17.7954 1.50391 19.7503 3.25147 19.9371 5.56947C20.3549 10.7545 20.3545 14.6882 19.9346 19.9335C19.7489 22.2531 17.7936 24.0039 15.4866 24.0039H8.50009C6.18551 24.0039 4.22726 22.2422 4.0494 19.9151C3.65108 14.7039 3.64983 10.7777 4.04786 5.58968ZM8.00055 3.0449C6.68111 3.26486 5.64769 4.3461 5.54347 5.70443C5.15134 10.8156 5.1525 14.6652 5.54501 19.8008C5.66167 21.3269 6.95025 22.5039 8.50009 22.5039H15.4866C17.0316 22.5039 18.3177 21.3341 18.4393 19.8138C18.853 14.6476 18.8532 10.7943 18.4419 5.68996C18.3333 4.34169 17.3077 3.26989 15.9983 3.04671L15.6243 3.64515C15.1446 4.41265 14.3034 4.87891 13.3983 4.87891H10.6017C9.69664 4.87891 8.8554 4.41265 8.3757 3.64515L8.00055 3.0449ZM9.76316 3.00391C9.97455 3.24029 10.2786 3.37891 10.6017 3.37891H13.3983C13.7214 3.37891 14.0254 3.24029 14.2368 3.00391H9.76316Z" fill="#7C8BA1"/>
<path d="M9.75 20.2539C9.75 19.8397 10.0858 19.5039 10.5 19.5039H13.5C13.9142 19.5039 14.25 19.8397 14.25 20.2539C14.25 20.6681 13.9142 21.0039 13.5 21.0039H10.5C10.0858 21.0039 9.75 20.6681 9.75 20.2539Z" fill="#7C8BA1"/>
</g>
<defs>
<clipPath id="clip0_22060_3275">
<rect width="24" height="24" fill="white" transform="translate(0 0.753906)"/>
</clipPath>
</defs>
</svg>
