<svg width="20" height="21" viewBox="0 0 20 21" fill="none" xmlns="http://www.w3.org/2000/svg">
<g clip-path="url(#clip0_22061_4402)">
<path fill-rule="evenodd" clip-rule="evenodd" d="M4.0625 2.00391C4.0625 1.65873 3.78269 1.37891 3.4375 1.37891C3.09232 1.37891 2.8125 1.65873 2.8125 2.00391V3.3236C1.56001 3.6078 0.625 4.72791 0.625 6.06641C0.625 7.61972 1.8842 8.87891 3.4375 8.87891C4.99081 8.87891 6.25 7.61972 6.25 6.06641C6.25 4.72791 5.315 3.6078 4.0625 3.3236V2.00391ZM3.4375 4.50391C2.57456 4.50391 1.875 5.20347 1.875 6.06641C1.875 6.92934 2.57456 7.62891 3.4375 7.62891C4.30044 7.62891 5 6.92934 5 6.06641C5 5.20347 4.30044 4.50391 3.4375 4.50391Z" fill="#F06872"/>
<path fill-rule="evenodd" clip-rule="evenodd" d="M13.75 6.06641C13.75 4.72791 14.685 3.6078 15.9375 3.3236V2.00391C15.9375 1.65873 16.2173 1.37891 16.5625 1.37891C16.9077 1.37891 17.1875 1.65873 17.1875 2.00391V3.3236C18.44 3.6078 19.375 4.72791 19.375 6.06641C19.375 7.61972 18.1158 8.87891 16.5625 8.87891C15.0092 8.87891 13.75 7.61972 13.75 6.06641ZM16.5625 4.50391C15.6996 4.50391 15 5.20347 15 6.06641C15 6.92934 15.6996 7.62891 16.5625 7.62891C17.4254 7.62891 18.125 6.92934 18.125 6.06641C18.125 5.20347 17.4254 4.50391 16.5625 4.50391Z" fill="#F06872"/>
<path d="M4.0625 10.1289C4.0625 9.78372 3.78269 9.50391 3.4375 9.50391C3.09232 9.50391 2.8125 9.78372 2.8125 10.1289V19.5039C2.8125 19.8491 3.09232 20.1289 3.4375 20.1289C3.78269 20.1289 4.0625 19.8491 4.0625 19.5039V10.1289Z" fill="#F06872"/>
<path d="M16.5625 9.50391C16.9077 9.50391 17.1875 9.78372 17.1875 10.1289V19.5039C17.1875 19.8491 16.9077 20.1289 16.5625 20.1289C16.2173 20.1289 15.9375 19.8491 15.9375 19.5039V10.1289C15.9375 9.78372 16.2173 9.50391 16.5625 9.50391Z" fill="#F06872"/>
<path d="M10 12.0039C9.65481 12.0039 9.375 11.7241 9.375 11.3789V2.00391C9.375 1.65873 9.65481 1.37891 10 1.37891C10.3452 1.37891 10.625 1.65873 10.625 2.00391V11.3789C10.625 11.7241 10.3452 12.0039 10 12.0039Z" fill="#F06872"/>
<path fill-rule="evenodd" clip-rule="evenodd" d="M10.625 18.1842C11.8775 17.9 12.8125 16.7799 12.8125 15.4414C12.8125 13.8881 11.5533 12.6289 10 12.6289C8.44669 12.6289 7.1875 13.8881 7.1875 15.4414C7.1875 16.7799 8.1225 17.9 9.375 18.1842V19.5039C9.375 19.8491 9.65481 20.1289 10 20.1289C10.3452 20.1289 10.625 19.8491 10.625 19.5039V18.1842ZM11.5625 15.4414C11.5625 16.3043 10.8629 17.0039 10 17.0039C9.13706 17.0039 8.4375 16.3043 8.4375 15.4414C8.4375 14.5785 9.13706 13.8789 10 13.8789C10.8629 13.8789 11.5625 14.5785 11.5625 15.4414Z" fill="#F06872"/>
</g>
<defs>
<clipPath id="clip0_22061_4402">
<rect width="20" height="20" fill="white" transform="translate(0 0.753906)"/>
</clipPath>
</defs>
</svg>
