<svg width="24" height="25" viewBox="0 0 24 25" fill="none" xmlns="http://www.w3.org/2000/svg">
<path fill-rule="evenodd" clip-rule="evenodd" d="M9.16035 12.9435L1.09375 7.75786L1.90489 6.49609L9.97148 11.6818C11.2068 12.4759 12.7919 12.4759 14.0272 11.6818L22.0938 6.49609L22.9049 7.75786L14.8383 12.9435C13.1089 14.0553 10.8897 14.0553 9.16035 12.9435Z" fill="#7C8BA1"/>
<path fill-rule="evenodd" clip-rule="evenodd" d="M0.75 7.50391C0.75 5.43286 2.42893 3.75391 4.5 3.75391H19.5C21.5711 3.75391 23.25 5.43286 23.25 7.50391V18.0039C23.25 20.075 21.5711 21.7539 19.5 21.7539H4.5C2.42893 21.7539 0.75 20.075 0.75 18.0039V7.50391ZM4.5 5.25391C3.25736 5.25391 2.25 6.26127 2.25 7.50391V18.0039C2.25 19.2465 3.25736 20.2539 4.5 20.2539H19.5C20.7426 20.2539 21.75 19.2465 21.75 18.0039V7.50391C21.75 6.26127 20.7426 5.25391 19.5 5.25391H4.5Z" fill="#7C8BA1"/>
</svg>
