<svg width="136" height="24" viewBox="0 0 136 24" fill="none" xmlns="http://www.w3.org/2000/svg">
<path d="M9.15323 5.408C10.4202 3.136 11.0532 2 12.0002 2C12.9472 2 13.5802 3.136 14.8472 5.408L15.1752 5.996C15.5352 6.642 15.7152 6.965 15.9952 7.178C16.2752 7.391 16.6252 7.47 17.3252 7.628L17.9612 7.772C20.4212 8.329 21.6502 8.607 21.9432 9.548C22.2352 10.488 21.3972 11.469 19.7202 13.43L19.2862 13.937C18.8102 14.494 18.5712 14.773 18.4642 15.117C18.3572 15.462 18.3932 15.834 18.4652 16.577L18.5312 17.254C18.7842 19.871 18.9112 21.179 18.1452 21.76C17.3792 22.341 16.2272 21.811 13.9252 20.751L13.3282 20.477C12.6742 20.175 12.3472 20.025 12.0002 20.025C11.6532 20.025 11.3262 20.175 10.6722 20.477L10.0762 20.751C7.77323 21.811 6.62124 22.341 5.85624 21.761C5.08924 21.179 5.21623 19.871 5.46923 17.254L5.53523 16.578C5.60723 15.834 5.64323 15.462 5.53523 15.118C5.42923 14.773 5.19024 14.494 4.71424 13.938L4.28024 13.43C2.60324 11.47 1.76523 10.489 2.05723 9.548C2.34923 8.607 3.58024 8.328 6.04024 7.772L6.67624 7.628C7.37524 7.47 7.72424 7.391 8.00524 7.178C8.28624 6.965 8.46523 6.642 8.82523 5.996L9.15323 5.408Z" fill="#EC2635"/>
<path d="M37.1532 5.408C38.4202 3.136 39.0532 2 40.0002 2C40.9472 2 41.5802 3.136 42.8472 5.408L43.1752 5.996C43.5352 6.642 43.7152 6.965 43.9952 7.178C44.2752 7.391 44.6252 7.47 45.3252 7.628L45.9612 7.772C48.4212 8.329 49.6502 8.607 49.9432 9.548C50.2352 10.488 49.3972 11.469 47.7202 13.43L47.2862 13.937C46.8102 14.494 46.5712 14.773 46.4642 15.117C46.3572 15.462 46.3932 15.834 46.4652 16.577L46.5312 17.254C46.7842 19.871 46.9112 21.179 46.1452 21.76C45.3792 22.341 44.2272 21.811 41.9252 20.751L41.3282 20.477C40.6742 20.175 40.3472 20.025 40.0002 20.025C39.6532 20.025 39.3262 20.175 38.6722 20.477L38.0762 20.751C35.7732 21.811 34.6212 22.341 33.8562 21.761C33.0892 21.179 33.2162 19.871 33.4692 17.254L33.5352 16.578C33.6072 15.834 33.6432 15.462 33.5352 15.118C33.4292 14.773 33.1902 14.494 32.7142 13.938L32.2802 13.43C30.6032 11.47 29.7652 10.489 30.0572 9.548C30.3492 8.607 31.5802 8.328 34.0402 7.772L34.6762 7.628C35.3752 7.47 35.7242 7.391 36.0052 7.178C36.2862 6.965 36.4652 6.642 36.8252 5.996L37.1532 5.408Z" fill="#EC2635"/>
<path d="M65.1532 5.408C66.4202 3.136 67.0532 2 68.0002 2C68.9472 2 69.5802 3.136 70.8472 5.408L71.1752 5.996C71.5352 6.642 71.7152 6.965 71.9952 7.178C72.2752 7.391 72.6252 7.47 73.3252 7.628L73.9612 7.772C76.4212 8.329 77.6502 8.607 77.9432 9.548C78.2352 10.488 77.3972 11.469 75.7202 13.43L75.2862 13.937C74.8102 14.494 74.5712 14.773 74.4642 15.117C74.3572 15.462 74.3932 15.834 74.4652 16.577L74.5312 17.254C74.7842 19.871 74.9112 21.179 74.1452 21.76C73.3792 22.341 72.2272 21.811 69.9252 20.751L69.3282 20.477C68.6742 20.175 68.3472 20.025 68.0002 20.025C67.6532 20.025 67.3262 20.175 66.6722 20.477L66.0762 20.751C63.7732 21.811 62.6212 22.341 61.8562 21.761C61.0892 21.179 61.2162 19.871 61.4692 17.254L61.5352 16.578C61.6072 15.834 61.6432 15.462 61.5352 15.118C61.4292 14.773 61.1902 14.494 60.7142 13.938L60.2802 13.43C58.6032 11.47 57.7652 10.489 58.0572 9.548C58.3492 8.607 59.5802 8.328 62.0402 7.772L62.6762 7.628C63.3752 7.47 63.7242 7.391 64.0052 7.178C64.2862 6.965 64.4652 6.642 64.8252 5.996L65.1532 5.408Z" fill="#EC2635"/>
<path d="M93.1532 5.408C94.4202 3.136 95.0532 2 96.0002 2C96.9472 2 97.5802 3.136 98.8472 5.408L99.1752 5.996C99.5352 6.642 99.7152 6.965 99.9952 7.178C100.275 7.391 100.625 7.47 101.325 7.628L101.961 7.772C104.421 8.329 105.65 8.607 105.943 9.548C106.235 10.488 105.397 11.469 103.72 13.43L103.286 13.937C102.81 14.494 102.571 14.773 102.464 15.117C102.357 15.462 102.393 15.834 102.465 16.577L102.531 17.254C102.784 19.871 102.911 21.179 102.145 21.76C101.379 22.341 100.227 21.811 97.9252 20.751L97.3282 20.477C96.6742 20.175 96.3472 20.025 96.0002 20.025C95.6532 20.025 95.3262 20.175 94.6722 20.477L94.0762 20.751C91.7732 21.811 90.6212 22.341 89.8562 21.761C89.0892 21.179 89.2162 19.871 89.4692 17.254L89.5352 16.578C89.6072 15.834 89.6432 15.462 89.5352 15.118C89.4292 14.773 89.1902 14.494 88.7142 13.938L88.2802 13.43C86.6032 11.47 85.7652 10.489 86.0572 9.548C86.3492 8.607 87.5802 8.328 90.0402 7.772L90.6762 7.628C91.3752 7.47 91.7242 7.391 92.0052 7.178C92.2862 6.965 92.4652 6.642 92.8252 5.996L93.1532 5.408Z" fill="#EC2635"/>
<path d="M121.153 5.408C122.42 3.136 123.053 2 124 2C124.947 2 125.58 3.136 126.847 5.408L127.175 5.996C127.535 6.642 127.715 6.965 127.995 7.178C128.275 7.391 128.625 7.47 129.325 7.628L129.961 7.772C132.421 8.329 133.65 8.607 133.943 9.548C134.235 10.488 133.397 11.469 131.72 13.43L131.286 13.937C130.81 14.494 130.571 14.773 130.464 15.117C130.357 15.462 130.393 15.834 130.465 16.577L130.531 17.254C130.784 19.871 130.911 21.179 130.145 21.76C129.379 22.341 128.227 21.811 125.925 20.751L125.328 20.477C124.674 20.175 124.347 20.025 124 20.025C123.653 20.025 123.326 20.175 122.672 20.477L122.076 20.751C119.773 21.811 118.621 22.341 117.856 21.761C117.089 21.179 117.216 19.871 117.469 17.254L117.535 16.578C117.607 15.834 117.643 15.462 117.535 15.118C117.429 14.773 117.19 14.494 116.714 13.938L116.28 13.43C114.603 11.47 113.765 10.489 114.057 9.548C114.349 8.607 115.58 8.328 118.04 7.772L118.676 7.628C119.375 7.47 119.724 7.391 120.005 7.178C120.286 6.965 120.465 6.642 120.825 5.996L121.153 5.408Z" fill="#EC2635"/>
</svg>
