<svg width="24" height="25" viewBox="0 0 24 25" fill="none" xmlns="http://www.w3.org/2000/svg">
<path fill-rule="evenodd" clip-rule="evenodd" d="M12 4.75391C10.3431 4.75391 9 6.09706 9 7.75391C9 9.41076 10.3431 10.7539 12 10.7539C13.6569 10.7539 15 9.41076 15 7.75391C15 6.09706 13.6569 4.75391 12 4.75391ZM7 7.75391C7 4.99249 9.23858 2.75391 12 2.75391C14.7614 2.75391 17 4.99249 17 7.75391C17 10.5153 14.7614 12.7539 12 12.7539C9.23858 12.7539 7 10.5153 7 7.75391Z" fill="#7C8BA1"/>
<path fill-rule="evenodd" clip-rule="evenodd" d="M12 15.7539C8.68629 15.7539 6 18.4402 6 21.7539C6 22.3062 5.55228 22.7539 5 22.7539C4.44772 22.7539 4 22.3062 4 21.7539C4 17.3356 7.58172 13.7539 12 13.7539C16.4183 13.7539 20 17.3356 20 21.7539C20 22.3062 19.5523 22.7539 19 22.7539C18.4477 22.7539 18 22.3062 18 21.7539C18 18.4402 15.3137 15.7539 12 15.7539Z" fill="#7C8BA1"/>
</svg>
