<svg width="20" height="20" viewBox="0 0 20 20" fill="none" xmlns="http://www.w3.org/2000/svg">
<path d="M10.0013 1.66797C14.6038 1.66797 18.3346 5.3988 18.3346 10.0013C18.3346 14.6038 14.6038 18.3346 10.0013 18.3346C8.52861 18.3372 7.0818 17.9474 5.80965 17.2055L1.67131 18.3346L2.79798 14.1946C2.05545 12.9221 1.6654 11.4746 1.66798 10.0013C1.66798 5.3988 5.39882 1.66797 10.0013 1.66797ZM7.16132 6.08464L6.99465 6.0913C6.88689 6.09873 6.7816 6.12703 6.68465 6.17464C6.59429 6.22589 6.51178 6.28988 6.43965 6.36464C6.33965 6.4588 6.28298 6.54047 6.22215 6.61964C5.91392 7.02039 5.74796 7.5124 5.75048 8.01797C5.75215 8.4263 5.85881 8.8238 6.02548 9.19547C6.36631 9.94714 6.92715 10.743 7.66715 11.4805C7.84548 11.658 8.02048 11.8363 8.20882 12.0021C9.12834 12.8116 10.224 13.3954 11.4088 13.7071L11.8821 13.7796C12.0363 13.788 12.1905 13.7763 12.3455 13.7688C12.5881 13.756 12.8251 13.6903 13.0396 13.5763C13.1487 13.5199 13.2552 13.4588 13.3588 13.393C13.3588 13.393 13.3941 13.3691 13.463 13.318C13.5755 13.2346 13.6446 13.1755 13.738 13.078C13.808 13.0057 13.8663 12.9219 13.913 12.8263C13.978 12.6905 14.043 12.4313 14.0696 12.2155C14.0896 12.0505 14.0838 11.9605 14.0813 11.9046C14.078 11.8155 14.0038 11.723 13.923 11.6838L13.438 11.4663C13.438 11.4663 12.713 11.1505 12.2696 10.9488C12.2232 10.9286 12.1735 10.917 12.123 10.9146C12.066 10.9087 12.0083 10.915 11.954 10.9333C11.8996 10.9516 11.8498 10.9813 11.808 11.0205C11.8038 11.0188 11.748 11.0663 11.1455 11.7963C11.1109 11.8428 11.0633 11.8779 11.0087 11.8972C10.954 11.9165 10.8949 11.9191 10.8388 11.9046C10.7845 11.8902 10.7313 11.8718 10.6796 11.8496C10.5763 11.8063 10.5405 11.7896 10.4696 11.7596C9.99121 11.5512 9.54835 11.2692 9.15715 10.9238C9.05215 10.8321 8.95465 10.7321 8.85465 10.6355C8.52682 10.3215 8.24111 9.96629 8.00465 9.5788L7.95548 9.49964C7.9207 9.44613 7.89218 9.38881 7.87048 9.3288C7.83881 9.2063 7.92131 9.10797 7.92131 9.10797C7.92131 9.10797 8.12381 8.8863 8.21798 8.7663C8.30965 8.64963 8.38715 8.5363 8.43715 8.45547C8.53548 8.29714 8.56632 8.13464 8.51465 8.0088C8.28132 7.4388 8.0402 6.87186 7.79131 6.30797C7.74215 6.1963 7.59631 6.1163 7.46381 6.10047C7.41881 6.09491 7.37381 6.09047 7.32881 6.08714C7.21692 6.08072 7.10472 6.08183 6.99298 6.09047L7.16132 6.08464Z" fill="#EC2635"/>
</svg>
