<svg width="483" height="500" viewBox="0 0 483 500" fill="none" xmlns="http://www.w3.org/2000/svg"><g id="Group"><path id="translate_1" style="transform-origin: center; transform-box: fill-box; animation: zoom 2s linear infinite alternate;" d="M223.697 0H402.497C417.978 0 430.527 12.5498 430.527 28.0308V206.831C430.527 222.312 417.978 234.861 402.497 234.861H223.697C208.216 234.861 195.666 222.312 195.666 206.831V28.0308C195.666 12.5498 208.216 0 223.697 0Z" fill="#F29299"/><path id="translate_2" style="transform-origin: center; transform-box: fill-box; animation: zoom 1s linear infinite alternate;" d="M356.569 306.855H461.892C473.343 306.855 482.625 316.138 482.625 327.588V432.911C482.625 444.361 473.343 453.644 461.892 453.644H356.569C345.119 453.644 335.837 444.361 335.837 432.911V327.588C335.837 316.138 345.119 306.855 356.569 306.855Z" fill="#F9EAEB"/><path id="translate_3" style="transform-origin: center; transform-box: fill-box; animation: zoom 3s linear infinite alternate;" d="M258.725 500H79.9252C64.4442 500 51.8945 487.45 51.8945 471.969L51.8945 293.169C51.8945 277.688 64.4442 265.139 79.9252 265.139H258.725C274.206 265.139 286.756 277.688 286.756 293.169V471.969C286.756 487.45 274.206 500 258.725 500Z" fill="#C7D1DA"/><path id="translate_4" style="transform-origin: center; transform-box: fill-box; animation: zoom 2.3s linear infinite alternate;" d="M126.055 192.961L20.7328 192.961C9.2824 192.961 0 183.679 0 172.228L0 66.9053C0 55.4549 9.2824 46.1725 20.7328 46.1725L126.055 46.1725C137.506 46.1725 146.788 55.4549 146.788 66.9053L146.788 172.228C146.788 183.679 137.506 192.961 126.055 192.961Z" fill="#DADADA"/></g><style>@keyframes zoom { 0% { transform: scale(1); } 100% { transform: scale(.8); }}</style></svg>