<svg xmlns="http://www.w3.org/2000/svg" viewBox="0 0 2051.58 786.07"><defs><style>.cls-1{fill:#262d67;}.cls-2,.cls-5{fill:#262f60;}.cls-3{fill:#fff;}.cls-4{fill:#ea2836;}.cls-5{font-size:287.38px;font-family:MyriadPro-Light, Myriad Pro;font-weight:300;}.cls-6{font-family:MyriadPro-Regular, Myriad Pro;font-weight:400;}</style></defs><g id="Layer_2" data-name="Layer 2"><g id="Layer_1-2" data-name="Layer 1"><path class="cls-1" d="M441.83,228.52c-.58,11.34-10.62,180-15.65,266.07-2.29,39.1-4,78.25-7.17,117.28-.55,6.7-5.78,15.31-11.46,19C332.65,678.9,257.28,726.24,182,773.75a128.91,128.91,0,0,1-12.43,7.37c-23.71,11.47-41.65,2.66-46.33-23-4.62-25.28-8.73-50.66-13.08-76Q78.41,496.85,46.64,311.59C31.43,222.92,16,134.29,1.07,45.58-1.52,30.23-.18,14.89,13.89,4.89c12.62-9,25.33-3.91,38,1.78Q224.07,84.16,396.41,161.33q8.8,3.94,17.51,8.08c11.7,5.59,21.09,12.24,25.27,23.17,3,8,3,18.5,3,23.38,0,3.25-.13,7-.13,7S442,225.73,441.83,228.52Zm-19.23-4.77c.17-2.4.35-5.91.31-10.15s-.3-7.58-.34-8c-1.06-11.87-23.47-21.94-23.47-21.94C279.65,130.68,160.61,76.82,41.31,23.56c-1-.44-6.2-3.84-12.53-2.69a10.63,10.63,0,0,0-3.28,1C19.44,25.28,19.87,38,20.32,40.78c9.19,57.08,19.18,114,29,171Q84.16,414.33,119,616.87c7.8,45.38,15.29,90.81,23.13,136.18,2.38,13.77,7.68,16.27,20,10.11,2.86-1.44,5.48-3.36,8.2-5.09,73.81-46.74,147.7-93.36,221.24-140.52,4.42-2.84,8.11-9.74,8.69-15.12,2-19.18,2.55-38.51,3.67-57.79C410.05,439.16,416.2,333.68,422.6,223.75Z"/><path class="cls-2" d="M1309.84,330.06c-29.66-1.61-57-1.61-84-4.93-39.55-4.87-59.3-30.46-59.07-72.65.19-34.82,2-36.8,37-40.47-9.77,77.52,6.38,97.37,75.24,90.29V213.77c26.64-5.22,51.79-8.25,77.15-1.53,16.82,4.46,26.87,16.42,28.58,33,1.72,16.85.38,34,.38,52.12h-29c0-12.32.52-24.05-.13-35.71-.73-12.84-4.06-24.33-19-28.07-20.64-5.16-27.09-.43-27.08,20.62Z"/><path class="cls-2" d="M780.19,212.28H811.3c0,44.89,2.51,88.9-.77,132.47-2.82,37.59-34.73,54-78.09,44.44V365.52c3.92.7,7,1.39,10,1.77,25.81,3.14,37.44-6.72,37.63-32.65.26-34.85.07-69.71.08-104.56Z"/><path class="cls-2" d="M680.34,212.32H712V274.9c0,18.77.09,37.53,0,56.3-.26,46.58-32.94,70.34-79.64,57.27V365.8c5.31.72,9.82,1.59,14.37,1.91,22.11,1.57,33.17-8.15,33.47-30.75.46-35.38.16-70.77.17-106.16C680.34,225,680.34,219.21,680.34,212.32Z"/><path class="cls-2" d="M1009.81,207c58.42,13.13,87.68,56.38,79,121-3.51.23-7.16.66-10.81.67-30,.05-59.91,0-91,0V304.16h71a61.44,61.44,0,0,0-1.82-24.29c-6.71-23.57-27.3-35.76-36.18-41.11a97.52,97.52,0,0,0-19.32-8.92Q1005.2,218.4,1009.81,207Z"/><path class="cls-2" d="M1418,327.53V303.78h73.4c-1.29-39.5-22.25-61.11-58.24-72.16l6.79-24.15c57.3,8.88,89.65,57.14,80.94,120.06Z"/><path class="cls-3" d="M377.56,408c2-55.25,2.62-110.59,6.63-165.69,1.9-26.11-8.16-38.86-30.68-49-83.55-37.71-166.38-77-249.74-115.16-7.57-3.47-21.7-6.9-24.5-3.51-5.5,6.68-7.55,18.35-6.78,27.6,1.82,21.85,6.11,43.49,9.43,65.21q39.83,260.65,79.62,521.32c4.38,28.77,10.85,32.44,34.81,17.62q82.83-51.2,165.11-103.24c4.37-2.78,8.3-9.75,8.56-15C373,528.17,375.15,468.1,377.56,408Z"/><path class="cls-2" d="M2046,216.22q-.42-5.59-.86-11.15-7.29.1-15,.47-7.56.38-14.69,1c1.64,32.94,3.19,64.12,4.72,94.88-33.53,4.79-40.16-.78-40.25-29.77-.06-18,0-36.08,0-54h-30.47c0,20.18.23,39.4-.07,58.61-.28,17.83-8.71,29.53-20.72,29.72s-18-9-18.24-28.78c-.18-16.48,0-33,0-49.54h-31.71c0,17.93,1.43,34.72-.6,51.09-1,8.28-7.21,21.51-13,22.62-20,3.89-41.09,5.77-62.24-4.38,5.48-6.83,10.41-12.28,14.56-18.27,10.91-15.76,12.87-31.81,7.31-44.63-7.78-17.94-29.33-23.33-35.87-24.91-33.67-8.18-65,13.54-75.62,20.91a124.94,124.94,0,0,0-11,8.57l.72,14.1c2.32,3.09,4.89,6.22,7.73,9.35a135.42,135.42,0,0,0,41.83,30.88c-.64,2-1.29,4.1-1.93,6.16L1672,304.7c-2.18-3.82-2.65-4.27-2.65-4.71-.16-17.61,0-35.23-.38-52.83-.08-4-.52-9.64-.62-19.57,0-5.17,0-9.41,0-12.22-3-.66-7.31-1.54-12.51-2.38-24.23-4-42.42-6.94-58.41-2-24.1,7.46-46.24,33.38-46,60.56.29,32.16,14.47,49.18,46.82,54.66,12.94,2.2,26.19,2.58,39.1,3.77,2.56,27.76-18.36,36.51-40.6,37.14-13.21.37-26.48-1.58-41.06-2.58-.9,8.22-1.69,15.4-2.64,24,29.61,2.86,57.62,6.43,84.58-6.55,22-10.6,30-30.23,32-49.71,30.63-4.63,59.31-7.77,87.38-13.76,11.87-2.53,21.1-2.72,32.94,1.5,33.24,11.84,67.21,16.94,99.53-5.23,18.29,21.08,46.94,20.95,70.29-1,26.34,22.79,57.42,12.09,91.76,15.54Q2050.2,273.7,2046,216.22ZM1638.2,303.41c-8.89,0-15.3.27-21.69-.06-14.44-.74-26.12-6.35-31.41-20.68-5.4-14.65-3.89-28.87,7-40.5,10.28-11,23.62-12.13,37-6.8,3.8,1.51,8.51,6.67,8.68,10.34C1638.67,264.34,1638.2,283,1638.2,303.41ZM1795.59,254q-.08.71-.18,1.41c-.15.94-.34,1.9-.59,2.86s-.55,1.92-.89,2.89a39.57,39.57,0,0,1-1.91,4.38q-.75,1.46-1.65,2.91a48.89,48.89,0,0,1-4.18,5.75,58.23,58.23,0,0,1-6.84,6.86l-6.32-4.86-38.64-29.7h0c1.39-1.19,2.82-2.32,4.26-3.38,1.1-.8,2.21-1.58,3.33-2.31.65-.42,1.3-.83,2-1.22,8.54-5.16,17.59-8.11,25.69-8.65.62,0,1.24-.07,1.85-.08a35.25,35.25,0,0,1,3.58.1,28.72,28.72,0,0,1,6.59,1.24,22.81,22.81,0,0,1,4.31,1.87,18.65,18.65,0,0,1,4.69,3.77q.45.51.87,1.05A20.78,20.78,0,0,1,1795.59,254Z"/><path class="cls-2" d="M956.88,226.82c.14-8.28-3.25-12.3-10.29-12.95-19-1.74-38.27-4.87-57.15-3.52-30.32,2.17-50.12,26.17-51.28,57.89-1.2,32.88,14.29,52.38,47.15,58,12.93,2.2,26.17,2.59,39.14,3.79.33,20.41-6.6,31.09-24.63,34.39-11.86,2.17-24.3,1.37-36.49,1.5-6.69.07-13.38-.68-21.1-1.11v25c20.85,0,40.69,1.86,60.06-.41,33.23-3.89,53.56-27.58,54.2-61.14C957.13,294.4,956.31,260.6,956.88,226.82ZM925.14,303.3c-5.89,0-11,.2-15.81.2-2.89,0-5.65-.08-8.41-.32-14.62-1.28-25.42-8.46-29.45-23.06a54.53,54.53,0,0,1-1.77-9.6c0-.46-.07-.9-.1-1.35a42.72,42.72,0,0,1,0-5.31c.06-.87.15-1.74.27-2.6a34.38,34.38,0,0,1,11.23-21,29.19,29.19,0,0,1,20.54-7.94,50.55,50.55,0,0,1,17.18,3.53c2.86,1.07,5.92,6,6,9.32C925.44,263.84,925.14,282.51,925.14,303.3Z"/><path class="cls-4" d="M377.55,408C375.15,468.1,373,528.17,370,588.21c-.26,5.21-4.19,12.18-8.56,15q-82.18,52.2-165.11,103.24c-24,14.82-30.43,11.15-34.81-17.62Q121.82,428.12,81.92,167.47c-3.32-21.72-7.61-43.36-9.43-65.21-.77-9.25,1.28-20.92,6.78-27.6,2.8-3.39,16.93,0,24.5,3.51C187.13,116.32,270,155.62,353.51,193.33c22.52,10.16,32.58,22.91,30.68,49C380.18,297.45,379.57,352.79,377.55,408Zm-239.08-26.5c-.12,15,8.58,26.09,19.31,25.92,13.29-.2,18.78-8.95,19.6-20.91.88-12.73-9.39-25.43-20.16-24.53C144.34,363.1,139.26,372,138.47,381.54Z"/><path class="cls-3" d="M138.47,381.54c.79-9.52,5.87-18.44,18.75-19.52,10.77-.9,21,11.8,20.16,24.53-.82,12-6.31,20.71-19.6,20.91C147.05,407.63,138.35,396.55,138.47,381.54Z"/><circle class="cls-2" cx="1275.99" cy="358.69" r="14.74"/><circle class="cls-2" cx="696.17" cy="182.08" r="15.85"/><circle class="cls-2" cx="1232.21" cy="358.69" r="14.74"/><text class="cls-5" transform="translate(618.11 668.99)">Saudi <tspan class="cls-6" x="695.74" y="0">Doors</tspan></text></g></g></svg>