<svg width="165" height="65" viewBox="0 0 165 65" fill="none" xmlns="http://www.w3.org/2000/svg"><g id="Layer_1-2"><path id="Vector" d="M53.7516 32.3781C53.2025 32.3781 52.6077 32.3324 52.0586 32.1951L52.2416 30.0903C52.745 30.2276 53.294 30.3191 53.8431 30.3191C54.438 30.3648 55.0328 30.136 55.4446 29.7242C55.8107 29.2667 55.9937 28.5345 55.9937 27.5279V17.9189H58.6476V27.3906C58.6934 30.7309 57.0461 32.3781 53.7516 32.3781ZM57.3664 16.2259C56.6343 16.2259 55.9937 15.5853 55.9937 14.8532C55.9937 14.4871 56.131 14.1211 56.4055 13.8923C56.6343 13.6177 57.0004 13.4805 57.3664 13.4805C57.7325 13.4805 58.0985 13.6177 58.3273 13.8923C58.8764 14.4414 58.8764 15.3108 58.3273 15.8598C58.0985 16.0886 57.7325 16.2259 57.3664 16.2259ZM61.7133 32.3781C61.1643 32.3781 60.5694 32.3324 60.0203 32.1951L60.2034 30.0903C60.7524 30.2276 61.2558 30.3191 61.8049 30.3191C62.3997 30.3648 62.9945 30.136 63.4063 29.7242C63.7724 29.2667 63.9554 28.5345 63.9554 27.5279V17.9189H66.6093V27.3906C66.6551 30.7309 65.0078 32.3781 61.7133 32.3781Z" fill="#232B61"/><path id="Vector_2" d="M71.9171 32.3314C70.9104 32.3314 69.858 32.2399 68.8513 32.0569L69.0344 29.9063C70.041 30.1351 71.0934 30.2266 72.1458 30.2266C74.4337 30.2266 75.6234 29.3572 75.6234 27.5727V27.2524H74.0676C70.4986 27.2524 68.7141 25.6967 68.7141 22.6309C68.6683 21.3497 69.1259 20.0685 69.9953 19.1076C70.9562 18.101 72.2831 17.5977 74.0219 17.5977C75.4404 17.5977 76.8588 17.8264 78.1858 18.284V27.2982C78.2773 28.6251 77.7282 29.9521 76.7216 30.8672C75.6234 31.8739 74.0219 32.3314 71.9171 32.3314ZM75.5776 20.0685C74.9828 19.794 74.3422 19.7025 73.6558 19.7025C72.9695 19.6567 72.3289 19.977 71.9171 20.4804C71.4595 21.0294 71.2765 21.7158 71.2765 22.4021C71.2765 24.2782 72.2831 25.1933 74.2964 25.1933H75.5776V20.0685Z" fill="#232B61"/><path id="Vector_3" d="M80.1523 25.2396H86.1008C85.9635 22.2654 84.4077 20.4351 81.3878 19.6573L82.0284 17.4609C84.2705 18.0558 85.9177 19.0167 86.9701 20.2979C88.0683 21.7163 88.6632 23.5924 88.6632 26.0175V27.3445H80.1523V25.2396ZM101.887 27.2987C99.2788 27.2987 97.357 26.7496 96.1673 25.6972C95.0691 24.7363 94.5658 23.3178 94.5658 21.396C94.5658 20.3436 94.7488 19.2455 95.0691 18.2388L97.9061 17.7812C97.4485 18.8336 97.2197 19.9318 97.2197 21.0757C97.2197 22.54 97.5858 23.5924 98.3179 24.1872C99.05 24.7821 100.377 25.1939 102.207 25.1939H103.58V18.01C104.907 17.7355 106.234 17.5982 107.607 17.644C109.3 17.644 110.489 18.0558 111.221 18.8336C111.862 19.52 112.228 20.6182 112.228 22.0824V24.9193H109.62V22.3569C109.62 21.396 109.437 20.7097 109.117 20.2979C108.796 19.8861 108.201 19.703 107.378 19.703C106.92 19.703 106.508 19.7488 106.051 19.8403V27.2987H101.887ZM101.063 30.3187C101.063 30.6847 100.926 31.005 100.697 31.2796C100.423 31.5541 100.102 31.6914 99.7364 31.6914C99.3703 31.6914 99.05 31.5541 98.7755 31.2796C98.2721 30.7305 98.2721 29.9069 98.7755 29.3578C99.0043 29.0832 99.3703 28.946 99.7364 28.946C100.102 28.946 100.423 29.0832 100.697 29.3578C100.972 29.5866 101.109 29.9526 101.063 30.3187ZM104.358 30.3187C104.358 30.6847 104.221 31.005 103.992 31.2796C103.763 31.5541 103.397 31.6914 103.031 31.6914C102.665 31.6914 102.345 31.5541 102.07 31.2796C101.567 30.7305 101.567 29.9069 102.07 29.3578C102.299 29.0832 102.665 28.946 103.031 28.946C103.397 28.946 103.717 29.0832 103.992 29.3578C104.266 29.5866 104.404 29.9526 104.358 30.3187ZM114.47 25.2396H120.419C120.281 22.2654 118.726 20.4351 115.706 19.6573L116.346 17.4609C118.588 18.0558 120.236 19.0167 121.288 20.2979C122.432 21.7163 122.981 23.5924 122.981 26.0175V27.3445H114.47V25.2396ZM128.289 32.332C127.282 32.332 126.275 32.2405 125.269 32.0574L125.452 29.9069C126.458 30.1356 127.511 30.2272 128.563 30.2272C130.851 30.2272 132.041 29.3578 132.041 27.5733V27.253H130.485C126.916 27.253 125.132 25.6972 125.132 22.6315C125.086 21.3503 125.543 20.0691 126.413 19.1082C127.374 18.1015 128.701 17.5982 130.439 17.5982C131.858 17.5982 133.276 17.827 134.603 18.2846V25.1481H136.571V27.2072H134.603V27.253C134.695 28.6257 134.146 29.9069 133.139 30.822C131.995 31.8744 130.394 32.332 128.289 32.332ZM131.949 20.0691C131.354 19.7945 130.714 19.703 130.073 19.703C129.387 19.6573 128.746 19.9776 128.335 20.4809C127.877 21.03 127.694 21.7163 127.694 22.4027C127.694 24.2787 128.701 25.1939 130.714 25.1939H131.995L131.949 20.0691Z" fill="#232B61"/><path id="Vector_4" d="M135.703 25.2396H136.389C137.945 25.2854 139.547 25.0566 141.057 24.6448C139.272 22.9975 137.854 21.9909 136.847 21.7163L137.076 19.8403C139.135 18.3761 141.057 17.644 142.841 17.644C143.985 17.5524 145.175 17.9185 146.09 18.6048C146.731 19.1997 147.097 20.0233 147.051 20.8927C147.051 22.3112 146.365 23.5924 144.992 24.7363C145.678 25.0566 146.456 25.2396 147.234 25.2396H148.561V27.2987H146.959C145.495 27.2987 144.077 26.8869 142.841 26.0633C140.736 26.9326 138.494 27.3444 136.252 27.2987H135.703V25.2396ZM139.501 20.7554C140.004 20.9385 141.285 21.8994 143.207 23.5009C143.939 22.9975 144.397 22.1281 144.443 21.213C144.443 20.7554 144.305 20.3436 143.985 20.0233C143.573 19.703 143.07 19.52 142.567 19.5657C141.743 19.52 140.736 19.9318 139.501 20.7554ZM148.286 25.2396H149.293C149.796 25.2854 150.3 25.1024 150.666 24.7363C150.94 24.3702 151.078 23.7296 151.078 22.7687V19.1082H153.731V22.8145C153.686 23.4551 153.777 24.1415 153.96 24.7821C154.189 25.1939 154.647 25.4227 155.104 25.3769C156.157 25.3769 156.706 24.5075 156.706 22.8145V18.2846H159.222V23.3178C159.222 24.0957 159.405 24.599 159.68 24.8736C159.954 25.1481 160.595 25.2396 161.556 25.2396H162.059C162.151 24.4618 162.196 23.6381 162.196 22.8603C162.196 21.0757 162.013 19.2454 161.602 17.5067L164.164 17.1406C164.576 18.9709 164.805 20.8012 164.805 22.6772C164.805 24.233 164.713 25.7887 164.484 27.3445H161.19C160.366 27.3902 159.543 27.2987 158.765 27.0699C158.216 26.8869 157.758 26.4751 157.483 25.9717C157.026 26.9784 156.019 27.5275 154.464 27.5275C153.045 27.5275 152.13 27.0242 151.81 25.9717C151.398 26.8869 150.528 27.3902 149.156 27.3902H148.195L148.286 25.2396Z" fill="#232B61"/><g id="Group"><path id="Vector_5" d="M58.786 49.672C58.786 50.2211 58.6944 50.6787 58.4657 51.1363C58.2369 51.5481 57.9623 51.9141 57.5963 52.1887C57.2302 52.4632 56.8184 52.692 56.3608 52.875C55.9033 53.0123 55.3999 53.1038 54.8966 53.1038C54.2103 53.1038 53.5239 52.9665 52.8833 52.692C52.2427 52.4175 51.6479 52.0972 51.1445 51.7311L51.8766 50.5414C52.38 50.9075 52.8833 51.182 53.3409 51.4566C53.7984 51.7311 54.3475 51.8684 54.8966 51.8684C55.5372 51.8684 56.0863 51.6853 56.5439 51.3193C56.9557 50.9532 57.1845 50.4499 57.1845 49.8093C57.1845 49.3975 57.093 49.0772 56.9099 48.7569C56.7269 48.4366 56.4981 48.1621 56.2236 47.9333C55.9948 47.7502 55.7202 47.5215 55.4457 47.3384C55.1712 47.1096 54.8509 46.9266 54.5306 46.6978C54.2103 46.469 53.89 46.2403 53.5697 46.0115C53.2494 45.7827 52.9748 45.5539 52.7003 45.3251C52.38 45.0048 52.1054 44.6845 51.8309 44.3185C51.6021 43.9524 51.4648 43.4948 51.4648 43.0373C51.4648 42.4882 51.5563 42.0764 51.7851 41.6646C52.0139 41.2985 52.2885 40.9324 52.6088 40.7037C52.9748 40.4291 53.3409 40.2461 53.7984 40.1088C54.256 39.9715 54.7136 39.9258 55.1712 39.9258C55.8118 39.9258 56.3608 40.0173 56.8642 40.1546C57.3675 40.2918 57.8251 40.4749 58.3284 40.7037L57.7336 41.8933C57.3217 41.6646 56.9099 41.4815 56.4981 41.3443C56.0863 41.207 55.6287 41.1612 55.2169 41.1612C54.9424 41.1612 54.6678 41.207 54.3933 41.2527C54.1187 41.3443 53.89 41.4358 53.7069 41.6188C53.5239 41.8018 53.3409 41.9848 53.2494 42.2136C53.1121 42.4424 53.0663 42.717 53.0663 43.0373C53.0663 43.4033 53.1578 43.6779 53.3409 43.9524C53.5239 44.2269 53.7527 44.4557 54.0272 44.6388C54.2103 44.8218 54.439 45.0048 54.7136 45.1878C54.9881 45.3709 55.2627 45.5997 55.583 45.7827C55.9033 45.9657 56.1778 46.2403 56.4981 46.469C56.8184 46.6978 57.093 46.9266 57.3675 47.1096C58.3284 47.796 58.786 48.7111 58.786 49.672Z" fill="#232B61"/></g><g id="Group_2"><path id="Vector_6" d="M68.6225 53.013C68.4853 52.9215 68.3937 52.83 68.348 52.6927C68.2565 52.5554 68.2107 52.4182 68.165 52.2809C68.1192 52.0979 68.0734 51.9148 68.0734 51.6861C67.9362 51.8233 67.7989 52.0064 67.6159 52.1436C67.4328 52.3267 67.2498 52.4639 67.021 52.6012C66.7922 52.7385 66.5635 52.83 66.2889 52.9215C66.0144 53.013 65.7398 53.0588 65.4195 53.0588C64.5959 53.0588 63.9096 52.7842 63.452 52.2809C62.9944 51.7776 62.7656 51.137 62.7656 50.3591C62.7656 49.3982 63.1317 48.6661 63.8638 48.117C64.5959 47.5679 65.6026 47.3391 66.838 47.3391C67.021 47.3391 67.2041 47.3391 67.3871 47.3391C67.5701 47.3391 67.7989 47.3391 67.9819 47.3849V46.241C67.9819 45.7376 67.8904 45.4173 67.7074 45.1428C67.5244 44.914 67.2041 44.7767 66.7007 44.7767C66.2432 44.7767 65.6941 44.8683 65.145 45.097C64.5959 45.3258 64.0926 45.5546 63.6808 45.7834L63.0859 44.8225C63.818 44.4564 64.4586 44.1819 65.0992 43.9531C65.7398 43.7701 66.2889 43.6328 66.838 43.6328C67.5701 43.6328 68.165 43.8158 68.6225 44.1361C69.0801 44.5022 69.3089 45.0055 69.3089 45.6919V51.503L69.6749 52.5097L68.6225 53.013ZM68.0277 48.4373C67.8447 48.3915 67.6616 48.3915 67.4328 48.3915C67.2041 48.3915 67.021 48.3915 66.8838 48.3915C65.9686 48.3915 65.328 48.5746 64.8704 48.8949C64.4129 49.2609 64.1841 49.7185 64.1841 50.3591C64.1841 50.7709 64.3214 51.1827 64.5501 51.503C64.7789 51.8233 65.1907 52.0064 65.6941 52.0064C66.1974 52.0064 66.655 51.8691 67.021 51.5488C67.3871 51.2285 67.7531 50.8624 68.0277 50.4964V48.4373Z" fill="#232B61"/></g><g id="Group_3"><path id="Vector_7" d="M80.7023 53.0152C80.6108 52.9237 80.5193 52.8322 80.4278 52.6492C80.3363 52.5119 80.2905 52.3746 80.2448 52.1916C80.199 52.0086 80.1532 51.8256 80.1075 51.5968C79.7414 52.0086 79.3296 52.3289 78.872 52.6034C78.4145 52.878 77.9111 53.0152 77.2705 53.0152C76.4012 53.0152 75.8063 52.7865 75.3945 52.2831C74.9827 51.7798 74.7539 51.0935 74.7539 50.1783V44.1841L76.1724 43.7266V50.041C76.1724 50.5444 76.2639 51.0019 76.4927 51.368C76.6757 51.7798 77.0875 51.9628 77.5908 51.9628C77.8654 51.9628 78.0942 51.9171 78.323 51.8256C78.5517 51.734 78.7805 51.5968 79.0093 51.4138C79.1923 51.2765 79.4211 51.0935 79.5584 50.8647C79.7414 50.6816 79.8787 50.4529 80.016 50.2698V44.1384L81.4344 43.7266V51.5053L81.7547 52.5119L80.7023 53.0152Z" fill="#232B61"/><path id="Vector_8" d="M90.3128 53.0145C90.2213 52.923 90.1298 52.8315 90.084 52.74C90.0383 52.6485 89.9925 52.5112 89.901 52.3739C89.8552 52.2366 89.8095 52.0536 89.7637 51.8248C89.3977 52.1909 89.0316 52.4654 88.574 52.6942C88.1165 52.923 87.6131 53.0603 87.1098 53.0603C86.515 53.0603 86.0116 52.923 85.5998 52.6942C85.188 52.4654 84.8219 52.0994 84.5474 51.6876C84.2729 51.2757 84.0898 50.8182 83.9526 50.2691C83.8153 49.7658 83.7695 49.2167 83.7695 48.6676C83.7695 48.027 83.861 47.3864 83.9983 46.7916C84.1356 46.1967 84.3644 45.6934 84.6847 45.2358C85.005 44.7782 85.4168 44.4122 85.9201 44.1376C86.4234 43.8631 87.0183 43.7258 87.7046 43.7258C88.0249 43.7258 88.3452 43.7716 88.7113 43.8631C89.0774 43.9546 89.3976 44.0461 89.6722 44.2292V39.8822L90.9534 39.3789C90.9534 39.5162 90.9991 39.6534 91.0449 39.7907C91.0449 39.928 91.0907 40.0653 91.0907 40.2483C91.0907 40.4313 91.0907 40.6143 91.0907 40.7974V51.5045L91.4567 52.5112L90.3128 53.0145ZM89.6264 45.3731C89.4434 45.2358 89.1689 45.0985 88.8486 45.007C88.5283 44.9155 88.208 44.8698 87.9334 44.8698C87.4759 44.8698 87.064 44.9613 86.7437 45.1901C86.4234 45.4188 86.1489 45.6934 85.9201 46.0137C85.6913 46.3797 85.5541 46.7458 85.4168 47.2034C85.3253 47.6609 85.2795 48.1185 85.2795 48.6218C85.2795 49.6285 85.4625 50.4064 85.8744 51.047C86.2404 51.6876 86.8353 52.0079 87.6131 52.0079C87.7962 52.0079 88.0249 51.9621 88.208 51.8706C88.391 51.7791 88.6198 51.6876 88.8028 51.5503C88.9858 51.413 89.1689 51.2757 89.3061 51.0927C89.4434 50.9097 89.5807 50.7724 89.6722 50.5894V45.3731H89.6264Z" fill="#232B61"/><path id="Vector_9" d="M93.8789 42.0323V40.1562H95.4346V42.0323H93.8789ZM94.1534 52.831C94.1077 52.6937 94.0619 52.5107 94.0619 52.3734C94.0162 52.2361 94.0162 52.0531 94.0162 51.8701C94.0162 51.687 94.0162 51.504 94.0162 51.321V44.1371L95.4346 43.7253V52.831H94.1534Z" fill="#232B61"/></g><g id="Group_4"><path id="Vector_10" d="M119.139 46.3798C119.139 47.2491 119.048 48.0728 118.865 48.8506C118.682 49.6285 118.407 50.3149 117.995 50.9097C117.583 51.5046 117.126 51.9621 116.531 52.3282C115.936 52.6942 115.25 52.8773 114.426 52.8773C113.831 52.8773 113.236 52.8773 112.55 52.8315C111.864 52.8315 111.223 52.7858 110.628 52.7858C110.583 52.557 110.537 52.3282 110.491 52.1452C110.491 51.9164 110.445 51.6418 110.445 51.2758V40.0653C111.04 40.0653 111.681 40.0195 112.367 40.0195C113.053 40.0195 113.74 40.0195 114.335 40.0195C116.028 40.0195 117.217 40.5686 117.995 41.621C118.773 42.6734 119.139 44.2292 119.139 46.3798ZM117.538 46.3798C117.538 44.5952 117.309 43.314 116.806 42.4904C116.302 41.6668 115.524 41.255 114.426 41.255H112.001V51.5503C112.321 51.5503 112.687 51.5503 113.145 51.5503C113.603 51.5503 113.969 51.5503 114.38 51.5503C114.975 51.5503 115.479 51.413 115.89 51.0927C116.302 50.7724 116.623 50.4064 116.897 49.9031C117.126 49.3997 117.309 48.8506 117.446 48.2558C117.492 47.661 117.538 47.0204 117.538 46.3798Z" fill="#232B61"/></g><g id="Group_5"><path id="Vector_11" d="M133.233 48.2995C133.233 49.0316 133.141 49.6722 132.913 50.267C132.684 50.8619 132.409 51.3652 131.997 51.777C131.631 52.1888 131.174 52.5091 130.716 52.7379C130.213 52.9667 129.71 53.0582 129.206 53.0582C128.657 53.0582 128.108 52.9667 127.651 52.7837C127.147 52.6006 126.735 52.3261 126.369 51.9143C126.003 51.5482 125.729 51.0449 125.5 50.4501C125.271 49.8552 125.18 49.1231 125.18 48.3452C125.18 47.6589 125.271 47.0183 125.5 46.4692C125.729 45.9201 126.003 45.4168 126.369 45.005C126.735 44.5932 127.147 44.2729 127.651 44.0898C128.154 43.861 128.657 43.7695 129.252 43.7695C130.533 43.7695 131.54 44.1813 132.226 45.005C132.867 45.7828 133.233 46.881 133.233 48.2995ZM131.769 48.2995C131.769 47.8419 131.723 47.3843 131.631 46.9725C131.54 46.5607 131.403 46.1947 131.174 45.8744C130.991 45.5541 130.716 45.2795 130.35 45.0965C130.03 44.9135 129.618 44.8219 129.161 44.8219C128.749 44.8219 128.383 44.9135 128.062 45.0965C127.742 45.2795 127.468 45.5083 127.239 45.8286C127.01 46.1489 126.827 46.515 126.735 46.9268C126.644 47.3386 126.552 47.7962 126.552 48.2995C126.552 49.4892 126.781 50.3586 127.239 50.9991C127.696 51.6397 128.337 51.96 129.115 51.96C129.527 51.96 129.893 51.8685 130.213 51.6855C130.533 51.5025 130.808 51.2279 131.037 50.9076C131.265 50.5873 131.403 50.1755 131.54 49.718C131.723 49.3061 131.769 48.8486 131.769 48.2995Z" fill="#232B61"/></g><g id="Group_6"><path id="Vector_12" d="M145.631 48.2995C145.631 49.0316 145.54 49.6722 145.311 50.267C145.082 50.8619 144.808 51.3652 144.396 51.777C144.03 52.1888 143.572 52.5091 143.115 52.7379C142.611 52.9667 142.108 53.0582 141.605 53.0582C141.056 53.0582 140.507 52.9667 140.049 52.7837C139.546 52.6006 139.134 52.3261 138.768 51.9143C138.402 51.5482 138.127 51.0449 137.898 50.4501C137.67 49.8552 137.578 49.1231 137.578 48.3452C137.578 47.6589 137.67 47.0183 137.898 46.4692C138.127 45.9201 138.402 45.4168 138.768 45.005C139.134 44.5932 139.546 44.2729 140.049 44.0898C140.552 43.861 141.056 43.7695 141.651 43.7695C142.932 43.7695 143.938 44.1813 144.625 45.005C145.311 45.8286 145.631 46.881 145.631 48.2995ZM144.167 48.2995C144.167 47.8419 144.121 47.3843 144.03 46.9725C143.938 46.5607 143.801 46.1947 143.572 45.8744C143.389 45.5541 143.115 45.2795 142.749 45.0965C142.428 44.9135 142.017 44.8219 141.559 44.8219C141.147 44.8219 140.781 44.9135 140.461 45.0965C140.141 45.2795 139.866 45.5083 139.637 45.8286C139.408 46.1489 139.225 46.515 139.134 46.9268C139.042 47.3386 138.951 47.7962 138.951 48.2995C138.951 49.4892 139.18 50.3586 139.637 50.9991C140.095 51.6397 140.735 51.96 141.513 51.96C141.925 51.96 142.291 51.8685 142.611 51.6855C142.932 51.5025 143.206 51.2279 143.435 50.9076C143.664 50.5873 143.801 50.1755 143.938 49.718C144.121 49.3061 144.167 48.8486 144.167 48.2995Z" fill="#232B61"/></g><g id="Group_7"><path id="Vector_13" d="M154.6 45.6009C154.417 45.4179 154.234 45.2806 154.097 45.1891C153.96 45.0976 153.777 45.0518 153.548 45.0518C153.182 45.0518 152.861 45.1891 152.587 45.5094C152.267 45.8297 151.946 46.15 151.626 46.5618V52.8306H150.345C150.299 52.6933 150.299 52.556 150.253 52.373C150.208 52.2357 150.208 52.0984 150.208 51.9154C150.208 51.7324 150.208 51.5494 150.208 51.3206V45.4179L149.75 44.3197L151.123 43.8622C151.214 43.9994 151.26 44.1825 151.306 44.3197C151.351 44.457 151.443 44.5943 151.489 44.7773C151.535 44.9603 151.58 45.0976 151.58 45.2806C151.992 44.8688 152.404 44.5028 152.77 44.2282C153.136 43.9537 153.502 43.8164 153.914 43.8164C154.188 43.8164 154.463 43.8622 154.692 43.9537C154.921 44.0452 155.149 44.1825 155.332 44.3197L154.6 45.6009Z" fill="#232B61"/></g><g id="Group_8"><path id="Vector_14" d="M162.836 50.4489C162.836 51.2268 162.561 51.8674 162.012 52.325C161.463 52.7826 160.777 53.0113 159.907 53.0113C159.404 53.0113 158.946 52.9198 158.443 52.7368C157.985 52.5538 157.528 52.325 157.07 52.0504L157.665 51.0438C158.077 51.3183 158.443 51.5014 158.763 51.6844C159.084 51.8674 159.495 51.9589 159.907 51.9589C160.365 51.9589 160.685 51.8217 160.96 51.5471C161.234 51.2726 161.371 50.9523 161.371 50.5405C161.371 50.2659 161.326 50.0829 161.188 49.8541C161.051 49.6711 160.914 49.488 160.731 49.3965C160.365 49.122 159.953 48.8474 159.541 48.5729C159.129 48.2984 158.718 48.0238 158.306 47.7035C157.985 47.4747 157.757 47.2002 157.619 46.9714C157.436 46.6969 157.391 46.4223 157.391 46.0563C157.391 45.6902 157.482 45.3699 157.619 45.0954C157.757 44.8208 157.985 44.592 158.214 44.3633C158.489 44.1802 158.763 43.9972 159.084 43.9057C159.404 43.8142 159.77 43.7227 160.136 43.7227C160.639 43.7227 161.097 43.7684 161.509 43.9057C161.921 44.043 162.287 44.1345 162.607 44.2717L162.104 45.3242C161.783 45.1869 161.509 45.0496 161.234 44.9581C160.96 44.8666 160.594 44.7751 160.182 44.7751C159.816 44.7751 159.45 44.8666 159.175 45.0954C158.901 45.3242 158.763 45.5987 158.763 45.919C158.763 46.1478 158.809 46.3308 158.946 46.4681C159.038 46.6054 159.221 46.7426 159.45 46.8799C159.816 47.1544 160.228 47.429 160.594 47.7035C160.96 47.9781 161.371 48.2526 161.738 48.5729C162.47 49.122 162.836 49.7168 162.836 50.4489Z" fill="#232B61"/></g><g id="icon" style=" transform-origin: center; transform-box: fill-box; animation: translateX 1s linear infinite alternate;"><path id="Vector_15" fill-rule="evenodd" clip-rule="evenodd" d="M8.58975 6.98149L29.2262 16.5447C30.4616 17.1396 31.7886 17.6886 31.7428 19.0614L30.5989 47.751C30.5531 49.1238 30.6904 48.6204 29.5465 49.3525L16.4142 57.543C15.2245 58.2752 14.2636 58.1379 14.0806 56.7652L6.80522 8.90328C6.6222 7.53057 7.35431 6.38665 8.58975 6.98149Z" fill="#EC2635"/><path id="Vector_16" d="M4.33446 2.17703L32.3378 14.7602C33.9393 15.4923 35.6323 16.1329 35.5408 17.7802L33.7563 49.078C33.6647 50.7253 33.8478 50.0847 32.4293 50.9998L14.7213 62.2103C13.2571 63.1254 12.0216 62.9424 11.7471 61.2494L2.04661 4.5564C1.77207 2.90915 2.73296 1.49068 4.33446 2.17703Z" stroke="#232B61" stroke-width="3.61" stroke-miterlimit="2.61"/><path id="Vector_17" fill-rule="evenodd" clip-rule="evenodd" d="M13.5333 29.996C14.357 29.9045 15.1348 30.6366 15.2263 31.5975C15.3179 32.5584 14.7688 33.4278 13.9451 33.5193C13.1215 33.6108 12.3436 32.8787 12.2521 31.9178C12.1606 30.9569 12.7097 30.0875 13.5333 29.996Z" fill="white"/></g></g><style> @keyframes translateX { 0%, 100% { transform: translateX(0px); } 50% { transform: translateX(2px); }}</style></svg>