<svg width="44" height="45" viewBox="0 0 44 45" fill="none" xmlns="http://www.w3.org/2000/svg">
<path d="M0 22.7539C0 10.6036 9.84974 0.753906 22 0.753906C34.1503 0.753906 44 10.6036 44 22.7539C44 34.9042 34.1503 44.7539 22 44.7539C9.84974 44.7539 0 34.9042 0 22.7539Z" fill="#230911"/>
<path d="M23.1987 11.0859C24.5112 11.0894 25.1774 11.0964 25.7525 11.1128L25.9789 11.1209C26.2402 11.1303 26.498 11.1419 26.8095 11.1559C28.0509 11.2143 28.8979 11.4103 29.641 11.6984C30.411 11.9948 31.0597 12.3961 31.7084 13.0436C32.3018 13.6266 32.7609 14.3322 33.0535 15.1109C33.3417 15.8541 33.5377 16.7011 33.596 17.9436C33.61 18.2539 33.6217 18.5118 33.631 18.7743L33.638 19.0006C33.6555 19.5746 33.6625 20.2408 33.6649 21.5533L33.666 22.4236V23.9519C33.6689 24.8029 33.6599 25.6539 33.6392 26.5046L33.6322 26.7309C33.6229 26.9934 33.6112 27.2513 33.5972 27.5616C33.5389 28.8041 33.3405 29.6499 33.0535 30.3943C32.7609 31.1731 32.3018 31.8786 31.7084 32.4616C31.1253 33.0551 30.4198 33.5142 29.641 33.8068C28.8979 34.0949 28.0509 34.2909 26.8095 34.3493L25.9789 34.3843L25.7525 34.3913C25.1774 34.4076 24.5112 34.4158 23.1987 34.4181L22.3284 34.4193H20.8012C19.9498 34.4223 19.0985 34.4133 18.2474 34.3924L18.021 34.3854C17.7441 34.3749 17.4672 34.3629 17.1904 34.3493C15.949 34.2909 15.102 34.0949 14.3577 33.8068C13.5793 33.514 12.8742 33.0549 12.2915 32.4616C11.6976 31.8787 11.2382 31.1732 10.9452 30.3943C10.657 29.6511 10.461 28.8041 10.4027 27.5616L10.3677 26.7309L10.3619 26.5046C10.3404 25.6539 10.3306 24.8029 10.3327 23.9519V21.5533C10.3295 20.7023 10.338 19.8513 10.3584 19.0006L10.3665 18.7743C10.3759 18.5118 10.3875 18.2539 10.4015 17.9436C10.4599 16.7011 10.6559 15.8553 10.944 15.1109C11.2377 14.3318 11.698 13.6263 12.2927 13.0436C12.875 12.4504 13.5797 11.9914 14.3577 11.6984C15.102 11.4103 15.9479 11.2143 17.1904 11.1559C17.5007 11.1419 17.7597 11.1303 18.021 11.1209L18.2474 11.1139C19.0981 11.0932 19.9491 11.0843 20.8 11.0871L23.1987 11.0859ZM21.9994 16.9193C20.4523 16.9193 18.9685 17.5339 17.8746 18.6278C16.7806 19.7218 16.166 21.2055 16.166 22.7526C16.166 24.2997 16.7806 25.7834 17.8746 26.8774C18.9685 27.9714 20.4523 28.5859 21.9994 28.5859C23.5465 28.5859 25.0302 27.9714 26.1242 26.8774C27.2181 25.7834 27.8327 24.2997 27.8327 22.7526C27.8327 21.2055 27.2181 19.7218 26.1242 18.6278C25.0302 17.5339 23.5465 16.9193 21.9994 16.9193ZM21.9994 19.2526C22.459 19.2525 22.9141 19.343 23.3388 19.5188C23.7635 19.6946 24.1493 19.9524 24.4744 20.2773C24.7995 20.6023 25.0573 20.9881 25.2333 21.4127C25.4093 21.8373 25.4999 22.2924 25.4999 22.752C25.5 23.2116 25.4096 23.6668 25.2337 24.0915C25.0579 24.5161 24.8002 24.902 24.4752 25.2271C24.1503 25.5521 23.7645 25.81 23.3399 25.986C22.9153 26.1619 22.4602 26.2525 22.0005 26.2526C21.0723 26.2526 20.182 25.8839 19.5257 25.2275C18.8693 24.5711 18.5005 23.6809 18.5005 22.7526C18.5005 21.8243 18.8693 20.9341 19.5257 20.2777C20.182 19.6214 21.0723 19.2526 22.0005 19.2526M28.1255 15.1693C27.7388 15.1693 27.3678 15.3229 27.0943 15.5964C26.8208 15.8699 26.6672 16.2408 26.6672 16.6276C26.6672 17.0144 26.8208 17.3853 27.0943 17.6588C27.3678 17.9323 27.7388 18.0859 28.1255 18.0859C28.5123 18.0859 28.8832 17.9323 29.1567 17.6588C29.4302 17.3853 29.5839 17.0144 29.5839 16.6276C29.5839 16.2408 29.4302 15.8699 29.1567 15.5964C28.8832 15.3229 28.5123 15.1693 28.1255 15.1693Z" fill="#EC2635"/>
</svg>
