<svg width="20" height="20" viewBox="0 0 20 20" fill="none" xmlns="http://www.w3.org/2000/svg">
<path fill-rule="evenodd" clip-rule="evenodd" d="M3.38469 1.04297H6.51053C6.63766 1.04297 6.76176 1.08174 6.86628 1.1541C6.97081 1.22646 7.05078 1.32898 7.09553 1.44797L8.30886 4.67297C8.34885 4.77962 8.35894 4.89517 8.33803 5.00714L7.7297 8.26714C8.4772 10.0238 9.71136 11.2046 11.7572 12.2638L14.978 11.6388C15.0925 11.6167 15.2108 11.6271 15.3197 11.6688L18.5547 12.9021C18.673 12.9472 18.7748 13.0271 18.8466 13.1312C18.9185 13.2354 18.9571 13.3589 18.9572 13.4855V16.4721C18.9572 17.8271 17.7639 18.9263 16.3672 18.6221C13.823 18.0688 9.10886 16.6613 5.80719 13.3596C2.64386 10.1971 1.58386 5.8288 1.22803 3.46797C1.02386 2.11964 2.10469 1.04297 3.38469 1.04297Z" fill="#FDFFFF"/>
</svg>
