<svg width="44" height="45" viewBox="0 0 44 45" fill="none" xmlns="http://www.w3.org/2000/svg">
<path d="M0 22.7539C0 10.6036 9.84974 0.753906 22 0.753906C34.1503 0.753906 44 10.6036 44 22.7539C44 34.9042 34.1503 44.7539 22 44.7539C9.84974 44.7539 0 34.9042 0 22.7539Z" fill="#230911"/>
<path d="M21.8518 34.1464C20.4635 34.1464 19.5372 33.4907 18.71 32.9132C18.122 32.4967 17.5713 32.1012 16.9215 31.9916C16.6121 31.9386 16.2986 31.9128 15.9847 31.9146C15.434 31.9146 14.9965 31.9974 14.685 32.0604C14.4867 32.0954 14.321 32.1281 14.1903 32.1281C14.055 32.1281 13.8835 32.0907 13.817 31.8621C13.7587 31.6754 13.7225 31.4981 13.6863 31.3266C13.593 30.8949 13.5148 30.6301 13.3527 30.6032C11.6155 30.3384 10.576 29.9382 10.373 29.4646C10.3567 29.4132 10.3368 29.3596 10.3368 29.3187C10.3252 29.1741 10.4302 29.0539 10.576 29.0271C11.9538 28.7996 13.1917 28.0657 14.237 26.8594C15.049 25.9226 15.4445 25.0172 15.4807 24.9192C15.4807 24.9076 15.4912 24.9076 15.4912 24.9076C15.6903 24.4977 15.7299 24.1496 15.6102 23.8634C15.3862 23.3267 14.6477 23.0981 14.1437 22.9417C14.0142 22.9067 13.9045 22.8647 13.8112 22.8332C13.3795 22.6617 12.6608 22.2966 12.7553 21.7926C12.823 21.4286 13.306 21.1684 13.7015 21.1684C13.8112 21.1669 13.9045 21.1863 13.9815 21.2267C14.4248 21.4286 14.825 21.5324 15.168 21.5324C15.595 21.5324 15.798 21.3714 15.8493 21.3201C15.8385 21.0893 15.8248 20.8587 15.8085 20.6282C15.7035 19.0357 15.5845 17.0594 16.0885 15.9266C17.6028 12.5351 20.817 12.2632 21.769 12.2632L22.1843 12.2539H22.2427C23.1935 12.2539 26.4077 12.5187 27.922 15.9161C28.4318 17.0489 28.307 19.0311 28.202 20.6177L28.1915 20.6959C28.1822 20.9082 28.1658 21.1112 28.1565 21.3201C28.2078 21.3609 28.3945 21.5172 28.7795 21.5219C29.1132 21.5126 29.4772 21.4029 29.8925 21.2151C30.0074 21.1652 30.1312 21.1391 30.2565 21.1381C30.4023 21.1381 30.5482 21.1731 30.673 21.2151H30.6835C31.0323 21.3457 31.261 21.5896 31.261 21.8451C31.2715 22.0842 31.0837 22.4482 30.1947 22.8076C30.1013 22.8426 29.9917 22.8857 29.8622 22.9161C29.3675 23.0677 28.629 23.3069 28.3945 23.8377C28.265 24.1177 28.3163 24.4771 28.5147 24.8831C28.5147 24.8924 28.5252 24.8924 28.5252 24.8924C28.5823 25.0382 30.085 28.4507 33.4298 29.0072C33.4982 29.0188 33.5601 29.0546 33.604 29.1083C33.648 29.1619 33.6711 29.2296 33.669 29.2989C33.6698 29.351 33.6577 29.4012 33.6328 29.4494C33.4298 29.9277 32.3997 30.3174 30.652 30.5881C30.491 30.6137 30.4128 30.8797 30.3195 31.3114C30.2824 31.4913 30.2392 31.6699 30.19 31.8469C30.1375 32.0184 30.0278 32.1117 29.84 32.1117H29.8155C29.6491 32.1088 29.4835 32.0896 29.3208 32.0546C28.8932 31.9636 28.4572 31.9182 28.02 31.9192C27.7065 31.9201 27.3936 31.9463 27.0843 31.9974C26.4392 32.1024 25.8827 32.5026 25.2947 32.9191C24.457 33.4907 23.526 34.1464 22.1482 34.1464H21.8518Z" fill="#EC2635"/>
</svg>
