<svg width="44" height="45" viewBox="0 0 44 45" fill="none" xmlns="http://www.w3.org/2000/svg">
<path d="M0 22.7539C0 10.6036 9.84974 0.753906 22 0.753906C34.1503 0.753906 44 10.6036 44 22.7539C44 34.9042 34.1503 44.7539 22 44.7539C9.84974 44.7539 0 34.9042 0 22.7539Z" fill="#230911"/>
<path d="M21.9987 11.0859C19.6913 11.0859 17.4356 11.7702 15.5171 13.0521C13.5985 14.3341 12.1031 16.1562 11.2201 18.288C10.3371 20.4198 10.106 22.7655 10.5562 25.0287C11.0064 27.2918 12.1175 29.3706 13.7491 31.0022C15.3807 32.6338 17.4595 33.7449 19.7226 34.1951C21.9858 34.6453 24.3315 34.4142 26.4633 33.5312C28.5951 32.6482 30.4172 31.1528 31.6992 29.2343C32.9811 27.3157 33.6654 25.0601 33.6654 22.7526C33.6623 19.6594 32.4321 16.6937 30.2449 14.5064C28.0576 12.3192 25.0919 11.089 21.9987 11.0859ZM28.9275 20.0844V20.8381C28.9276 20.8958 28.916 20.9529 28.8936 21.006C28.8712 21.0592 28.8383 21.1073 28.797 21.1475C28.7557 21.1878 28.7067 21.2193 28.653 21.2403C28.5993 21.2613 28.5419 21.2713 28.4842 21.2698C27.2524 21.1827 26.0739 20.733 25.0974 19.9771V25.4931C25.0971 26.1036 24.9752 26.7079 24.7389 27.2708C24.5025 27.8336 24.1564 28.3438 23.7207 28.7714C23.2815 29.2103 22.7591 29.557 22.1841 29.7914C21.6092 30.0258 20.9932 30.1431 20.3724 30.1364C19.1239 30.1346 17.9256 29.6448 17.0334 28.7714C16.4657 28.1991 16.0567 27.4888 15.8469 26.7104C15.637 25.932 15.6334 25.1125 15.8364 24.3323C16.0219 23.5833 16.3964 22.8949 16.9249 22.3338C17.319 21.852 17.8158 21.4645 18.379 21.1994C18.9422 20.9344 19.5575 20.7986 20.1799 20.8019H21.1365V22.7888C21.137 22.8465 21.1251 22.9036 21.1017 22.9564C21.0783 23.0091 21.0439 23.0563 21.0009 23.0947C20.9578 23.1331 20.9071 23.1619 20.852 23.1792C20.7969 23.1964 20.7388 23.2017 20.6815 23.1948C20.1261 23.0279 19.5275 23.0833 19.0121 23.3491C18.4966 23.615 18.1045 24.0706 17.9185 24.6199C17.7324 25.1692 17.7668 25.7693 18.0146 26.2937C18.2623 26.8181 18.704 27.2258 19.2465 27.4309C19.5615 27.6118 19.9139 27.7179 20.2755 27.7424C20.5555 27.7541 20.8355 27.7191 21.1015 27.6351C21.5456 27.4853 21.9319 27.2006 22.2064 26.8209C22.481 26.4411 22.6303 25.9851 22.6334 25.5164V15.4656C22.6334 15.3544 22.6775 15.2478 22.756 15.169C22.8345 15.0903 22.941 15.0459 23.0522 15.0456H24.703C24.8103 15.0457 24.9134 15.0869 24.9913 15.1607C25.0692 15.2344 25.1159 15.3352 25.1219 15.4423C25.182 15.957 25.3455 16.4544 25.6025 16.9044C25.8595 17.3545 26.2048 17.748 26.6175 18.0614C27.1753 18.4801 27.8378 18.7369 28.532 18.8034C28.636 18.8123 28.7333 18.8586 28.8058 18.9337C28.8783 19.0087 28.9211 19.1075 28.9264 19.2118L28.9275 20.0844Z" fill="#EC2635"/>
</svg>
