<svg width="24" height="25" viewBox="0 0 24 25" fill="none" xmlns="http://www.w3.org/2000/svg">
<path d="M11.9998 3.50391C6.89225 3.50391 2.75 7.64391 2.75 12.7537C2.75 17.8634 6.89225 22.0034 11.9998 22.0034C17.1088 22.0034 21.2495 17.8634 21.2495 12.7537C21.2495 7.64391 17.1095 3.50391 11.9998 3.50391ZM11.9998 5.75391C13.3872 5.75391 14.6788 6.16491 15.7677 6.86391L6.11 16.5217C5.38511 15.3986 4.99969 14.0903 5 12.7537C5 8.89416 8.14025 5.75391 11.9998 5.75391ZM11.9998 19.7534C10.6632 19.7533 9.35494 19.3679 8.23175 18.6434L17.8888 8.98566C18.6136 10.1087 18.9991 11.417 18.9988 12.7537C18.9988 16.6132 15.8593 19.7534 11.9998 19.7534Z" fill="#A4A4A4"/>
</svg>
