<svg width="26" height="33" viewBox="0 0 26 33" fill="none" xmlns="http://www.w3.org/2000/svg">
<rect x="12" y="4.25391" width="13" height="28" stroke="#A4A4A4"/>
<rect x="1" y="1.25391" width="24" height="2" stroke="#A4A4A4"/>
<path d="M3.25251 17.5064C3.11583 17.6431 3.11583 17.8647 3.25251 18.0014L5.4799 20.2288C5.61658 20.3655 5.83819 20.3655 5.97487 20.2288C6.11156 20.0921 6.11156 19.8705 5.97487 19.7338L3.99497 17.7539L5.97487 15.774C6.11156 15.6373 6.11156 15.4157 5.97487 15.279C5.83819 15.1423 5.61658 15.1423 5.4799 15.279L3.25251 17.5064ZM19.7475 18.0014C19.8842 17.8647 19.8842 17.6431 19.7475 17.5064L17.5201 15.279C17.3834 15.1423 17.1618 15.1423 17.0251 15.279C16.8884 15.4157 16.8884 15.6373 17.0251 15.774L19.005 17.7539L17.0251 19.7338C16.8884 19.8705 16.8884 20.0921 17.0251 20.2288C17.1618 20.3655 17.3834 20.3655 17.5201 20.2288L19.7475 18.0014ZM3.5 18.1039L19.5 18.1039V17.4039L3.5 17.4039V18.1039Z" fill="#A4A4A4"/>
</svg>
