<svg width="16" height="33" viewBox="0 0 16 33" fill="none" xmlns="http://www.w3.org/2000/svg">
<rect x="1" y="1.25391" width="14" height="31" stroke="#A4A4A4"/>
<path d="M4.5 6.75391H8H11.5V9.75391H8H4.5V6.75391Z" stroke="#A4A4A4"/>
<path d="M11.5 19.7539C11.5 21.7595 11.0654 23.5505 10.3873 24.8219C9.69768 26.1149 8.83002 26.7539 8 26.7539C7.16998 26.7539 6.30232 26.1149 5.61275 24.8219C4.93464 23.5505 4.5 21.7595 4.5 19.7539C4.5 17.7483 4.93464 15.9574 5.61275 14.6859C6.30232 13.393 7.16998 12.7539 8 12.7539C8.83002 12.7539 9.69768 13.393 10.3873 14.6859C11.0654 15.9574 11.5 17.7483 11.5 19.7539Z" stroke="#A4A4A4"/>
</svg>
