<svg width="44" height="45" viewBox="0 0 44 45" fill="none" xmlns="http://www.w3.org/2000/svg">
<path d="M0 22.7539C0 10.6036 9.84974 0.753906 22 0.753906C34.1503 0.753906 44 10.6036 44 22.7539C44 34.9042 34.1503 44.7539 22 44.7539C9.84974 44.7539 0 34.9042 0 22.7539Z" fill="#F9EAEB"/>
<path d="M33.6654 22.7526C33.6654 16.3126 28.4387 11.0859 21.9987 11.0859C15.5587 11.0859 10.332 16.3126 10.332 22.7526C10.332 28.3993 14.3454 33.1009 19.6654 34.1859V26.2526H17.332V22.7526H19.6654V19.8359C19.6654 17.5843 21.497 15.7526 23.7487 15.7526H26.6654V19.2526H24.332C23.6904 19.2526 23.1654 19.7776 23.1654 20.4193V22.7526H26.6654V26.2526H23.1654V34.3609C29.057 33.7776 33.6654 28.8076 33.6654 22.7526Z" fill="#EC2635"/>
</svg>
