<svg width="60" height="60" viewBox="0 0 60 60" fill="none" xmlns="http://www.w3.org/2000/svg">
<path d="M0 30C0 13.4315 13.4315 0 30 0C46.5685 0 60 13.4315 60 30C60 46.5685 46.5685 60 30 60C13.4315 60 0 46.5685 0 30Z" fill="#E4F2FF"/>
<g clip-path="url(#clip0_22125_2173)">
<path d="M27.0878 41.9706C26.0816 42.2901 24.9876 42.2731 23.9826 41.9075C22.9777 41.5416 22.129 40.8516 21.5635 39.9601C20.5085 39.9162 19.4865 39.5259 18.6674 38.8386C18.564 38.752 18.4645 38.661 18.3696 38.5664L15.7567 44.0345C15.5604 44.445 15.6163 44.9314 15.9001 45.287C16.1839 45.6425 16.6459 45.8045 17.09 45.7038L22.3274 44.5161L24.6934 49.3372C24.893 49.7437 25.3065 50.0013 25.7587 50.0013H25.7652C26.2202 49.9989 26.6337 49.7364 26.8296 49.3259L29.867 42.9698C28.8551 42.9359 27.8822 42.5828 27.0878 41.9706Z" fill="#007AFF"/>
<path d="M41.3871 38.8386C40.568 39.5259 39.5457 39.9159 38.491 39.9598C37.9255 40.8516 37.0765 41.5416 36.0716 41.9072C35.0669 42.2731 33.9729 42.2901 32.9667 41.9706C32.1724 42.5828 31.1995 42.9359 30.1875 42.9698L33.2246 49.3259C33.4208 49.7364 33.8343 49.9986 34.2894 50.001H34.2955C34.748 50.001 35.1612 49.7437 35.3608 49.3372L37.7271 44.5161L42.9645 45.7035C43.4083 45.8045 43.8703 45.6425 44.1541 45.287C44.4382 44.9314 44.4938 44.445 44.2979 44.0345L41.6846 38.5664C41.5897 38.661 41.4906 38.7516 41.3871 38.8386Z" fill="#007AFF"/>
<path d="M44.6113 24.5687C45.0367 24.024 45.2118 23.3218 45.0922 22.6425C44.9723 21.9631 44.5676 21.3632 43.9817 20.9967C43.5199 20.708 43.3137 20.1422 43.4821 19.624C43.6954 18.9666 43.62 18.247 43.2749 17.6495C42.93 17.052 42.3444 16.6269 41.6685 16.4828C41.1359 16.3696 40.7487 15.9082 40.7294 15.3641C40.705 14.6731 40.3879 14.0228 39.8597 13.5794C39.3311 13.1357 38.6356 12.9367 37.9508 13.0325C37.4119 13.1085 36.89 12.807 36.6859 12.3022C36.4268 11.6614 35.9065 11.1584 35.258 10.9225C34.6098 10.6866 33.8877 10.7373 33.2777 11.0617C32.7967 11.3171 32.2035 11.2125 31.8388 10.8078C31.3764 10.2945 30.7154 10 30.0254 10C29.3354 10 28.6744 10.2945 28.2121 10.8078C27.8474 11.2125 27.2541 11.3171 26.7732 11.0617C26.1631 10.7373 25.4411 10.6866 24.7929 10.9225C24.1444 11.1584 23.6241 11.6614 23.365 12.3022C23.1608 12.807 22.6393 13.1085 22.1001 13.0325C21.4155 12.9367 20.7197 13.1357 20.1912 13.5794C19.6626 14.0228 19.3459 14.6731 19.3214 15.3641C19.3022 15.9082 18.9153 16.3696 18.3824 16.4831C17.7065 16.6269 17.1208 17.052 16.776 17.6495C16.4308 18.247 16.3554 18.9666 16.5688 19.624C16.7369 20.1422 16.5309 20.708 16.0692 20.997C15.4833 21.3632 15.0786 21.9631 14.9587 22.6425C14.839 23.3221 15.0142 24.024 15.4396 24.569C15.7747 24.9981 15.7747 25.6005 15.4396 26.0296C15.0142 26.5743 14.839 27.2765 14.9587 27.9559C15.0786 28.6355 15.4833 29.2352 16.0692 29.6017C16.5309 29.8904 16.7372 30.4562 16.5691 30.9743C16.3554 31.6317 16.4311 32.3513 16.776 32.9488C17.1211 33.5464 17.7065 33.9715 18.3824 34.1155C18.9153 34.2287 19.3022 34.6901 19.3214 35.2346C19.3459 35.9252 19.6629 36.5758 20.1915 37.0192C20.7201 37.4627 21.4159 37.6619 22.1001 37.5658C22.6393 37.4904 23.1608 37.7913 23.365 38.2964C23.6241 38.937 24.1447 39.4399 24.7929 39.6758C25.4414 39.9117 26.1631 39.861 26.7735 39.5369C26.9493 39.4432 27.1406 39.3981 27.3298 39.3981C27.6579 39.3981 27.9808 39.5339 28.2121 39.7905C28.6747 40.3041 29.3357 40.5983 30.0254 40.5983C30.7154 40.5983 31.3764 40.3038 31.8391 39.7905C32.2035 39.3859 32.7967 39.2815 33.2777 39.5369C33.888 39.8613 34.6098 39.9117 35.2583 39.6758C35.9065 39.4399 36.4268 38.937 36.6859 38.2964C36.89 37.7913 37.4119 37.4901 37.9511 37.5658C38.6353 37.6616 39.3311 37.4627 39.8597 37.0192C40.3882 36.5758 40.7053 35.9252 40.7297 35.2346C40.7487 34.6901 41.1359 34.229 41.6685 34.1155C42.3444 33.9715 42.93 33.5464 43.2752 32.9488C43.62 32.3513 43.6954 31.6317 43.4821 30.9743C43.314 30.4565 43.5199 29.8904 43.9817 29.6017C44.5679 29.2352 44.9726 28.6355 45.0925 27.9562C45.2121 27.2765 45.037 26.5746 44.6116 26.0296C44.2762 25.6002 44.2762 24.9981 44.6113 24.5687ZM30.0254 35.6981C24.2915 35.6981 19.6263 31.0332 19.6263 25.2993C19.6263 19.5651 24.2915 14.9002 30.0254 14.9002C35.7594 14.9002 40.4243 19.5651 40.4243 25.2993C40.4243 31.0332 35.7594 35.6981 30.0254 35.6981Z" fill="#007AFF"/>
<path d="M30.0255 17.2734C25.6001 17.2734 22 20.8736 22 25.2989C22 29.7239 25.6001 33.3241 30.0255 33.3241C34.4508 33.3241 38.0507 29.7239 38.0507 25.2989C38.0507 20.8736 34.4505 17.2734 30.0255 17.2734ZM25.0127 23.8268C25.4762 23.3632 26.2276 23.3632 26.6911 23.8268L29.0562 26.1919L33.3598 21.8883C33.8234 21.4247 34.5747 21.4247 35.0383 21.8883C35.5018 22.3515 35.5018 23.1032 35.0383 23.5664L29.8955 28.7095C29.673 28.932 29.3709 29.0571 29.0562 29.0571C28.7416 29.0571 28.4398 28.932 28.217 28.7095L25.013 25.5052C24.5491 25.0417 24.5491 24.2903 25.0127 23.8268Z" fill="#007AFF"/>
</g>
<defs>
<clipPath id="clip0_22125_2173">
<rect width="40" height="40" fill="white" transform="translate(10 10)"/>
</clipPath>
</defs>
</svg>
