<svg width="60" height="60" viewBox="0 0 60 60" fill="none" xmlns="http://www.w3.org/2000/svg">
<path d="M0 30C0 13.4315 13.4315 0 30 0C46.5685 0 60 13.4315 60 30C60 46.5685 46.5685 60 30 60C13.4315 60 0 46.5685 0 30Z" fill="#E9FAEF"/>
<path d="M37.2258 36.35C36.5484 37.3312 35.6938 38.1609 34.707 38.8016L34.8953 41.6922C34.9367 42.3383 34.7094 42.9734 34.2664 43.4469C33.8234 43.9195 33.2039 44.1875 32.5562 44.1875H26.968C26.3195 44.1875 25.7008 43.9195 25.2578 43.4469C24.8148 42.9734 24.5867 42.3383 24.6289 41.6922L24.8164 38.8016C23.8305 38.1609 22.9758 37.3312 22.2984 36.35C22.1656 36.1578 22.0406 35.9617 21.925 35.7617H12.3438V40.5406C12.3438 44.3141 15.4117 47.3844 19.1828 47.3844H40.8172C44.5883 47.3844 47.6562 44.3141 47.6562 40.5406V35.7617H37.5992C37.4828 35.9617 37.3586 36.1578 37.2258 36.35Z" fill="#34C759"/>
<path d="M47.2203 19.6195H37.6473V16.3133C37.6473 14.2752 35.9893 12.6172 33.9512 12.6172H25.5726C23.5345 12.6172 21.8765 14.2752 21.8765 16.3133V19.6195H12.7797C11.2469 19.6195 10 20.8672 10 22.4008V32.2445C10 32.8922 10.525 33.4164 11.1719 33.4164H20.9711C20.7945 32.7078 20.7047 31.975 20.7047 31.2313C20.7047 27.6969 22.7898 24.468 26.0164 23.0055C26.7039 22.6938 27.5 22.7328 28.1547 23.1094C28.8086 23.4867 29.2414 24.1563 29.3164 24.9078L29.7094 28.85L29.7617 28.8875L29.8148 28.85L30.2078 24.9078C30.2828 24.1563 30.7148 23.4867 31.3695 23.1094C32.0234 22.7328 32.8195 22.6938 33.507 23.0055C36.7344 24.468 38.8195 27.6969 38.8195 31.2313C38.8195 31.975 38.7289 32.7078 38.5523 33.4164H48.8281C49.475 33.4164 50 32.8922 50 32.2445V22.4008C50 20.8671 48.7531 19.6195 47.2203 19.6195ZM24.2203 16.3133C24.2203 15.5676 24.827 14.9609 25.5727 14.9609H33.9513C34.697 14.9609 35.3037 15.5676 35.3037 16.3133V19.6193H24.2203V16.3133Z" fill="#34C759"/>
<path d="M36.4739 31.2321C36.4739 28.5249 34.8599 26.1928 32.5384 25.1406L32.0394 30.1477L29.76 31.7566L27.4814 30.1477L26.9824 25.1406C24.6609 26.1928 23.0469 28.5248 23.0469 31.2321C23.0469 34.0429 24.787 36.4471 27.252 37.4371L26.9662 41.8428H32.5545L32.2687 37.4371C34.7339 36.4469 36.4739 34.0424 36.4739 31.2321Z" fill="#34C759"/>
</svg>
