<svg width="60" height="60" viewBox="0 0 60 60" fill="none" xmlns="http://www.w3.org/2000/svg">
<path d="M0 30C0 13.4315 13.4315 0 30 0C46.5685 0 60 13.4315 60 30C60 46.5685 46.5685 60 30 60C13.4315 60 0 46.5685 0 30Z" fill="#F9EAEB"/>
<g clip-path="url(#clip0_22125_2162)">
<path d="M28.0469 38.61C29.3287 38.9006 30.6687 38.9012 31.9531 38.61V32.4219H28.0469V38.61Z" fill="#EC2635"/>
<path d="M28.7695 30.0788H31.2272L29.9984 27.6211L28.7695 30.0788Z" fill="#EC2635"/>
<path d="M47.6562 25.7031H47.5781C46.4406 25.7031 45.4328 25.0258 45.0117 23.9766C44.9687 23.8695 44.925 23.7633 44.8797 23.6578C44.4328 22.6102 44.6633 21.4133 45.468 20.6086C46.382 19.6945 46.382 18.2078 45.468 17.2945L42.7055 14.532C41.7922 13.618 40.3055 13.618 39.3914 14.532C38.5867 15.3367 37.3898 15.5672 36.3422 15.1203C36.2367 15.075 36.1305 15.0312 36.0234 14.9883C34.9742 14.5672 34.2969 13.5594 34.2969 12.4219V12.3438C34.2969 11.0516 33.2453 10 31.9531 10H28.0469C26.7547 10 25.7031 11.0516 25.7031 12.3438V12.4219C25.7031 13.5594 25.0258 14.5672 23.9766 14.9883C23.8695 15.0312 23.7633 15.075 23.6578 15.1203C22.6102 15.5672 21.4133 15.3367 20.6086 14.532C19.6953 13.618 18.2078 13.618 17.2945 14.532L14.532 17.2945C13.618 18.2078 13.618 19.6945 14.532 20.6086C15.3367 21.4133 15.5672 22.6102 15.1203 23.6578C15.075 23.7641 15.0312 23.8695 14.9883 23.9766C14.5672 25.0258 13.5594 25.7031 12.4219 25.7031H12.3438C11.0516 25.7031 10 26.7547 10 28.0469V31.9531C10 33.2453 11.0516 34.2969 12.3438 34.2969H12.4219C13.5594 34.2969 14.5672 34.9742 14.9883 36.0234C15.0312 36.1305 15.075 36.2359 15.1203 36.3422C15.5672 37.3898 15.3367 38.5867 14.532 39.3914C13.618 40.3055 13.618 41.7922 14.532 42.7055L17.2945 45.468C18.2078 46.382 19.6953 46.382 20.6086 45.468C21.4133 44.6633 22.6102 44.4328 23.6578 44.8797C23.7633 44.925 23.8695 44.9687 23.9766 45.0117C25.0258 45.4328 25.7031 46.4406 25.7031 47.5781V47.6562C25.7031 48.9484 26.7547 50 28.0469 50H31.9531C33.2453 50 34.2969 48.9484 34.2969 47.6562V47.5781C34.2969 46.4406 34.9742 45.4328 36.0234 45.0117C36.1305 44.9687 36.2367 44.925 36.3422 44.8797C37.3898 44.4328 38.5867 44.6633 39.3914 45.468C40.3055 46.382 41.7922 46.382 42.7055 45.468L45.468 42.7055C46.382 41.7922 46.382 40.3055 45.468 39.3914C44.6633 38.5867 44.4328 37.3898 44.8797 36.3422C44.925 36.2367 44.9687 36.1305 45.0117 36.0234C45.4328 34.9742 46.4406 34.2969 47.5781 34.2969H47.6562C48.9484 34.2969 50 33.2453 50 31.9531V28.0469C50 26.7547 48.9484 25.7031 47.6562 25.7031ZM30 41.1719C23.8398 41.1719 18.8281 36.1602 18.8281 30C18.8281 23.8398 23.8398 18.8281 30 18.8281C36.1602 18.8281 41.1719 23.8398 41.1719 30C41.1719 36.1602 36.1602 41.1719 30 41.1719Z" fill="#EC2635"/>
<path d="M30 21.1719C25.1321 21.1719 21.1719 25.1322 21.1719 30C21.1719 33.3089 23.0021 36.198 25.7031 37.7094V31.25C25.7031 31.068 25.7455 30.8887 25.8268 30.7259L28.9518 24.4759C29.3827 23.6141 30.6168 23.6131 31.0481 24.4759L34.1731 30.7259C34.2545 30.8887 34.2969 31.0681 34.2969 31.25V37.7094C36.9979 36.198 38.8281 33.3089 38.8281 30C38.8281 25.1322 34.8679 21.1719 30 21.1719Z" fill="#EC2635"/>
</g>
<defs>
<clipPath id="clip0_22125_2162">
<rect width="40" height="40" fill="white" transform="translate(10 10)"/>
</clipPath>
</defs>
</svg>
