<svg width="49" height="48" viewBox="0 0 49 48" fill="none" xmlns="http://www.w3.org/2000/svg">
<path d="M8.05525 23.8847C6.1592 20.5786 5.2437 17.879 4.69167 15.1424C3.87524 11.0952 5.74362 7.14161 8.83876 4.61895C10.1469 3.55277 11.6465 3.91704 12.42 5.3048L14.1664 8.43782C15.5506 10.9211 16.2427 12.1628 16.1054 13.4792C15.9681 14.7956 15.0347 15.8677 13.1679 18.012L8.05525 23.8847ZM8.05525 23.8847C11.893 30.5765 17.9157 36.6025 24.6153 40.4448M24.6153 40.4448C27.9214 42.3408 30.621 43.2563 33.3576 43.8083C37.4048 44.6248 41.3584 42.7564 43.8811 39.6612C44.9472 38.3531 44.583 36.8535 43.1952 36.08L40.0622 34.3336C37.5789 32.9494 36.3372 32.2573 35.0208 32.3946C33.7044 32.5319 32.6323 33.4653 30.488 35.3321L24.6153 40.4448Z" stroke="black" stroke-width="2.5" stroke-linejoin="round"/>
</svg>
