<svg width="60" height="60" viewBox="0 0 60 60" fill="none" xmlns="http://www.w3.org/2000/svg"><g id="Layer 2"><g id="Layer 1"><g id="rotate" style="transform-origin: center; transform-box: fill-box; animation: spin 2s linear infinite;"><path id="Path 746" d="M43.8019 53.6271C39.638 56.0281 34.9156 57.291 30.1091 57.2891C25.3026 57.2871 20.5812 56.0203 16.4193 53.6159C12.2574 51.2115 8.80153 47.7542 6.39883 43.5914C3.99614 39.4285 2.73126 34.7066 2.73126 29.9001C2.73126 25.0936 3.99614 20.3717 6.39883 16.2088C8.80153 12.0459 12.2574 8.58861 16.4193 6.18423C20.5812 3.77984 25.3026 2.51304 30.1091 2.51108C34.9156 2.50912 39.638 3.77208 43.8019 6.17308C39.6375 8.57821 36.1795 12.037 33.7754 16.2019C31.3712 20.3668 30.1055 25.0911 30.1055 29.9001C30.1055 34.7091 31.3712 39.4334 33.7754 43.5983C36.1795 47.7632 39.6375 51.2219 43.8019 53.6271V53.6271Z" fill="#DDD0C9"/><path id="Path 747" d="M57.5359 16.9231C55.2123 12.0163 51.6146 7.82279 47.1182 4.78004C42.6218 1.7373 37.3913 -0.0432517 31.9723 -0.375894C26.5533 -0.708537 21.1443 0.418914 16.3095 2.88886C11.4747 5.35881 7.39117 9.08078 4.48484 13.6666C1.57851 18.2523 -0.044151 23.5339 -0.213893 28.9605C-0.383635 34.387 0.905757 39.7597 3.5198 44.5181C6.13384 49.2766 9.97677 53.2465 14.6478 56.0138C19.3188 58.7811 24.6467 60.2444 30.0759 60.2511H30.4439C36.0831 60.1811 41.5925 58.549 46.3599 55.5361C46.7007 55.3335 46.9973 55.0645 47.2323 54.7452C47.4672 54.4258 47.6357 54.0626 47.7277 53.677C47.8197 53.2913 47.8334 52.8912 47.768 52.5001C47.7025 52.1091 47.5593 51.7352 47.3467 51.4006C47.1341 51.0659 46.8565 50.7773 46.5304 50.5519C46.2043 50.3265 45.8362 50.1688 45.4481 50.0882C45.0599 50.0075 44.6595 50.0056 44.2706 50.0826C43.8817 50.1595 43.5121 50.3137 43.1839 50.5361C38.5096 53.4989 32.9673 54.7854 27.4659 54.1848C21.9644 53.5842 16.8303 51.1321 12.9054 47.2305C8.98054 43.3289 6.49788 38.2095 5.86453 32.7117C5.23119 27.2139 6.48476 21.664 9.41967 16.9722C12.3546 12.2804 16.7966 8.72505 22.0174 6.88924C27.2382 5.05343 32.9279 5.04609 38.1534 6.86842C43.3789 8.69076 47.8301 12.2346 50.7772 16.9188C53.7242 21.6031 54.992 27.1497 54.3729 32.6491C54.2866 33.4303 54.5141 34.2138 55.0054 34.8272C55.4968 35.4406 56.2117 35.8337 56.9929 35.9201C57.7741 36.0064 58.5576 35.7789 59.171 35.2875C59.7844 34.7962 60.1776 34.0813 60.2639 33.3001C60.8884 27.6938 59.944 22.0242 57.5359 16.9231V16.9231Z" fill="#323232"/></g><path id="Path 748" d="M39.899 19.613L25.617 33.906L20.317 28.606C19.76 28.049 19.0046 27.7361 18.217 27.7361C17.4293 27.7361 16.6739 28.049 16.117 28.606C15.56 29.1629 15.2471 29.9183 15.2471 30.706C15.2471 31.4936 15.56 32.249 16.117 32.806L23.517 40.206C24.0749 40.7612 24.8299 41.0729 25.617 41.0729C26.404 41.0729 27.1591 40.7612 27.717 40.206L44.088 23.814C44.3711 23.5407 44.5971 23.2137 44.7526 22.8522C44.9082 22.4907 44.9902 22.1018 44.9939 21.7083C44.9977 21.3148 44.9231 20.9244 44.7745 20.56C44.6259 20.1956 44.4063 19.8644 44.1284 19.5857C43.8505 19.307 43.5199 19.0864 43.1559 18.9368C42.7919 18.7871 42.4018 18.7114 42.0082 18.714C41.6147 18.7167 41.2256 18.7976 40.8637 18.9521C40.5017 19.1066 40.1741 19.3316 39.9 19.614L39.899 19.613Z" fill="#323232"/></g></g><style> @keyframes spin { 0% { transform: rotate(0deg) scale(.9); } 100% { transform: rotate(360deg) scale(.9); } }</style></svg>