<svg width="49" height="48" viewBox="0 0 49 48" fill="none" xmlns="http://www.w3.org/2000/svg">
<path d="M24.5 44C35.5457 44 44.5 35.0457 44.5 24C44.5 12.9543 35.5457 4 24.5 4C13.4543 4 4.5 12.9543 4.5 24C4.5 26.7577 5.05815 29.3851 6.06764 31.7753C6.62556 33.0963 6.90452 33.7568 6.93906 34.256C6.9736 34.7551 6.82668 35.3042 6.53283 36.4025L4.5 44L12.0975 41.9672C13.1958 41.6733 13.7449 41.5264 14.244 41.5609C14.7432 41.5955 15.4037 41.8744 16.7247 42.4324C19.1149 43.4419 21.7423 44 24.5 44Z" stroke="black" stroke-width="2.5" stroke-linejoin="round"/>
<path d="M17.6763 24.7547L19.4182 22.5913C20.1523 21.6795 21.0599 20.8306 21.1309 19.6165C21.1489 19.3099 20.9331 17.9331 20.5016 15.1797C20.332 14.0976 19.3217 14 18.4466 14C17.3063 14 16.7361 14 16.1699 14.2586C15.4543 14.5855 14.7196 15.5046 14.5583 16.2747C14.4308 16.8839 14.5256 17.3037 14.7152 18.1434C15.5205 21.7096 17.4096 25.2317 20.339 28.161C23.2683 31.0904 26.7904 32.9795 30.3566 33.7848C31.1963 33.9744 31.6161 34.0692 32.2253 33.9417C32.9954 33.7804 33.9145 33.0457 34.2414 32.3301C34.5 31.7639 34.5 31.1937 34.5 30.0534C34.5 29.1783 34.4024 28.168 33.3203 27.9984C30.5669 27.5669 29.1901 27.3511 28.8835 27.3691C27.6694 27.4401 26.8205 28.3477 25.9087 29.0818L23.7453 30.8237" stroke="black" stroke-width="2.5"/>
</svg>
